<?xml version="1.0" standalone="no"?>
<!DOCTYPE svg PUBLIC "-//W3C//DTD SVG 20010904//EN"
 "http://www.w3.org/TR/2001/REC-SVG-20010904/DTD/svg10.dtd">
<svg version="1.0" xmlns="http://www.w3.org/2000/svg"
 width="1030.000000pt" height="1270.000000pt" viewBox="0 0 1030.000000 1270.000000"
 preserveAspectRatio="xMidYMid meet">

<g transform="translate(0.000000,1270.000000) scale(0.200000,-0.200000)"
fill="#241910" stroke="none">
<path d="M2400 6195 c0 -3 -7 -5 -15 -5 -8 0 -15 -2 -15 -5 0 -3 -7 -5 -15 -5
-8 0 -15 -2 -15 -5 0 -3 -7 -5 -15 -5 -8 0 -15 -2 -15 -5 0 -3 -4 -5 -10 -5
-5 0 -10 -2 -10 -5 0 -3 -3 -5 -8 -5 -9 0 -102 -93 -102 -102 0 -5 -2 -8 -5
-8 -3 0 -5 -10 -5 -23 0 -29 -16 -47 -42 -47 -10 0 -18 2 -18 5 0 3 -7 5 -15
5 -8 0 -15 -2 -15 -5 0 -3 -15 -5 -35 -5 -20 0 -35 -2 -35 -5 0 -3 -9 -5 -20
-5 -11 0 -20 -2 -20 -5 0 -3 -4 -5 -10 -5 -5 0 -10 -2 -10 -5 0 -3 -4 -5 -10
-5 -5 0 -10 -2 -10 -5 0 -3 -4 -5 -10 -5 -5 0 -10 -2 -10 -5 0 -3 -4 -5 -9 -5
-5 0 -12 -4 -16 -10 -4 -5 -10 -10 -14 -10 -9 0 -21 -13 -21 -22 0 -4 -2 -8
-5 -8 -3 0 -5 -4 -5 -9 0 -5 -4 -12 -10 -16 -5 -4 -10 -11 -10 -16 0 -6 -4 -9
-13 -9 -13 0 -37 -20 -37 -30 0 -3 -7 -12 -15 -20 -31 -29 -22 -40 30 -40 27
0 45 2 45 5 0 3 9 5 20 5 11 0 20 2 20 5 0 3 6 5 14 5 8 0 17 4 21 10 8 11 65
15 65 5 0 -3 9 -5 20 -5 11 0 20 -2 20 -5 0 -3 11 -5 25 -5 14 0 25 -2 25 -5
0 -3 11 -5 25 -5 14 0 25 -2 25 -5 0 -3 11 -5 25 -5 14 0 25 -2 25 -5 0 -3 11
-5 25 -5 14 0 25 -2 25 -5 0 -3 5 -5 10 -5 6 0 10 -2 10 -5 0 -3 5 -5 10 -5 6
0 10 -2 10 -5 0 -3 5 -5 10 -5 6 0 10 -2 10 -5 0 -3 4 -5 8 -5 4 0 19 -11 32
-25 13 -14 27 -25 30 -25 3 0 12 -7 20 -15 8 -8 18 -15 22 -15 4 0 8 -2 8 -5
0 -3 4 -5 10 -5 5 0 10 -3 12 -6 2 -5 4 -5 6 0 3 7 32 8 32 1 0 -3 6 -5 14 -5
8 0 17 -4 21 -10 4 -5 12 -10 19 -10 18 0 29 -13 19 -22 -8 -9 -23 -11 -23 -3
0 3 -8 5 -18 5 -14 0 -21 4 -32 15 -14 15 -30 20 -30 10 0 -3 2 -5 5 -5 3 0 5
-3 5 -8 0 -10 22 -32 32 -32 5 0 8 -4 8 -10 0 -8 -3 -10 -20 -10 -11 0 -20 2
-20 5 0 3 -6 5 -14 5 -8 0 -17 4 -21 10 -4 6 -11 10 -16 10 -5 0 -9 2 -9 5 0
3 -7 5 -15 5 -8 0 -15 2 -15 5 0 3 -4 5 -10 5 -5 0 -10 2 -10 5 0 3 -4 5 -10
5 -5 0 -10 2 -10 5 0 3 -7 5 -15 5 -8 0 -15 2 -15 5 0 3 -7 5 -15 5 -8 0 -15
2 -15 5 0 3 -9 5 -20 5 -11 0 -20 2 -20 5 0 3 -7 5 -15 5 -8 0 -15 2 -15 5 0
3 -7 5 -15 5 -8 0 -15 2 -15 5 0 3 -13 5 -30 5 -17 0 -30 2 -30 5 0 3 -11 5
-25 5 -14 0 -25 2 -25 5 0 3 -7 5 -15 5 -8 0 -15 2 -15 5 0 8 -65 6 -73 -2 -8
-8 10 -33 23 -33 8 0 20 -13 20 -21 0 -4 5 -10 10 -14 6 -4 10 -12 10 -19 0
-15 11 -26 27 -26 7 0 13 -2 13 -5 0 -3 4 -5 8 -5 4 0 11 -3 15 -7 10 -10 -1
-23 -18 -23 -21 0 -27 -13 -13 -27 7 -7 16 -13 20 -13 5 0 8 -2 8 -5 0 -3 5
-5 10 -5 6 0 10 -2 10 -5 0 -3 4 -5 9 -5 5 0 12 -4 16 -10 4 -6 13 -10 21 -10
8 0 14 -2 14 -5 0 -3 3 -5 8 -5 10 0 52 -42 52 -52 0 -5 2 -8 5 -8 3 0 5 -11
5 -25 0 -19 2 -25 8 -25 4 0 13 -6 20 -12 12 -13 12 -13 0 -25 -7 -7 -15 -13
-18 -13 -7 0 -30 -23 -30 -30 0 -21 -35 -40 -72 -40 -22 0 -38 2 -38 5 0 8
-65 6 -73 -2 -15 -15 3 -53 25 -53 5 0 8 -2 8 -5 0 -3 5 -5 10 -5 6 0 10 -2
10 -5 0 -3 5 -5 10 -5 6 0 10 -2 10 -5 0 -3 7 -5 15 -5 8 0 15 -2 15 -5 0 -3
11 -5 25 -5 14 0 25 -2 25 -5 0 -3 17 -5 40 -5 23 0 40 -2 40 -5 0 -3 6 -5 14
-5 8 0 17 -4 21 -10 4 -5 12 -10 19 -10 12 0 26 -10 26 -20 0 -8 -13 -20 -22
-20 -4 0 -8 -2 -8 -5 0 -3 -3 -5 -8 -5 -10 0 -52 -42 -52 -52 0 -5 2 -8 5 -8
9 0 5 -28 -5 -35 -5 -4 -10 -11 -10 -16 0 -5 -2 -9 -5 -9 -3 0 -5 -4 -5 -8 0
-4 -7 -14 -15 -22 -8 -8 -15 -17 -15 -21 0 -4 -4 -10 -10 -14 -5 -4 -10 -12
-10 -19 0 -13 -60 -76 -72 -76 -5 0 -8 -2 -8 -5 0 -3 -4 -5 -10 -5 -7 0 -10
-3 -10 -13 0 -14 -30 -47 -42 -47 -5 0 -8 -2 -8 -5 0 -3 -4 -5 -10 -5 -5 0
-10 -2 -10 -5 0 -3 -7 -5 -15 -5 -8 0 -15 -2 -15 -5 0 -3 -9 -5 -20 -5 -11 0
-20 -2 -20 -5 0 -3 -13 -5 -30 -5 -17 0 -30 -2 -30 -5 0 -3 -37 -5 -100 -5
-63 0 -100 2 -100 5 0 3 -17 5 -40 5 -23 0 -40 2 -40 5 0 3 -25 5 -65 5 -40 0
-65 2 -65 5 0 3 -4 5 -10 5 -5 0 -10 2 -10 5 0 3 -4 5 -10 5 -5 0 -10 2 -10 5
0 3 -4 5 -10 5 -5 0 -10 2 -10 5 0 3 -4 5 -10 5 -5 0 -10 2 -10 5 0 3 -4 5 -9
5 -5 0 -12 5 -16 10 -4 6 -11 10 -16 10 -5 0 -9 2 -9 5 0 3 -4 5 -10 5 -5 0
-10 2 -10 5 0 3 -4 5 -9 5 -5 0 -12 5 -16 10 -4 6 -11 10 -15 10 -4 0 -11 5
-15 10 -4 6 -10 10 -14 10 -8 0 -41 32 -41 40 0 3 -16 21 -35 40 -19 19 -35
37 -35 40 0 7 23 30 30 30 7 0 30 23 30 30 0 3 7 12 15 20 11 11 15 18 15 32
0 10 2 18 5 18 3 0 5 18 5 45 0 27 2 45 5 45 3 0 5 7 5 15 0 8 -2 15 -5 15 -3
0 -5 5 -5 10 0 6 -2 10 -5 10 -3 0 -5 9 -5 20 0 11 -2 20 -5 20 -3 0 -5 5 -5
10 0 6 -2 10 -5 10 -3 0 -5 4 -5 9 0 5 -5 12 -10 16 -5 4 -10 10 -10 14 0 9
-103 111 -112 111 -5 0 -8 2 -8 5 0 3 -4 5 -10 5 -5 0 -10 2 -10 5 0 3 -4 5
-10 5 -5 0 -10 2 -10 5 0 3 -4 5 -10 5 -5 0 -10 2 -10 5 0 3 -4 5 -10 5 -5 0
-10 2 -10 5 0 3 -7 5 -15 5 -8 0 -15 2 -15 5 0 3 -9 5 -20 5 -11 0 -20 2 -20
5 0 3 -27 5 -70 5 -43 0 -70 -2 -70 -5 0 -3 -7 -5 -15 -5 -8 0 -15 -2 -15 -5
0 -3 -4 -5 -9 -5 -5 0 -12 -4 -16 -10 -4 -5 -11 -10 -16 -10 -5 0 -9 -2 -9 -5
0 -3 -4 -5 -10 -5 -5 0 -10 -2 -10 -5 0 -3 -4 -5 -10 -5 -5 0 -10 -2 -10 -5 0
-3 -4 -5 -9 -5 -5 0 -12 -4 -16 -10 -4 -5 -10 -10 -14 -10 -8 0 -31 -22 -31
-30 0 -3 -11 -17 -25 -30 -14 -13 -25 -27 -25 -31 0 -4 -5 -10 -10 -14 -6 -4
-10 -11 -10 -16 0 -5 -2 -9 -5 -9 -3 0 -5 -4 -5 -10 0 -5 -2 -10 -5 -10 -3 0
-5 -4 -5 -9 0 -5 -4 -12 -10 -16 -7 -5 -10 -13 -10 -26 0 -10 -2 -19 -5 -19
-3 0 -5 -7 -5 -15 0 -8 -2 -15 -5 -15 -3 0 -5 -7 -5 -15 0 -8 2 -15 5 -15 3 0
5 -4 5 -10 0 -5 2 -10 5 -10 10 0 5 -16 -10 -30 -15 -14 -23 -70 -10 -70 3 0
5 -4 5 -10 0 -5 -2 -10 -5 -10 -10 0 -6 -47 5 -55 13 -9 13 -31 0 -40 -10 -7
-14 -35 -5 -35 3 0 5 -4 5 -8 0 -4 7 -14 15 -22 18 -16 19 -25 5 -35 -11 -8
-15 -55 -5 -55 3 0 5 -13 5 -29 0 -23 2 -30 10 -36 10 -7 14 -25 5 -25 -3 0
-5 -9 -5 -20 0 -11 2 -20 5 -20 3 0 5 -4 5 -10 0 -5 2 -10 5 -10 3 0 5 -9 5
-20 0 -11 2 -20 5 -20 3 0 5 -7 5 -15 0 -8 -2 -15 -5 -15 -3 0 -5 -4 -5 -10 0
-5 -2 -10 -5 -10 -3 0 -5 -4 -5 -10 0 -5 -2 -10 -5 -10 -3 0 -5 -4 -5 -10 0
-5 -2 -10 -5 -10 -3 0 -5 -10 -5 -23 0 -19 -3 -25 -15 -37 -8 -8 -15 -19 -15
-25 0 -12 -41 -55 -52 -55 -5 0 -8 -2 -8 -5 0 -3 -7 -5 -15 -5 -8 0 -15 -2
-15 -5 0 -3 -23 -5 -60 -5 -60 0 -60 0 -60 -13 0 -8 6 -18 15 -27 8 -8 15 -18
15 -22 0 -4 2 -8 5 -8 3 0 5 -4 5 -10 0 -5 -2 -10 -5 -10 -3 0 -5 -6 -5 -13 0
-16 21 -37 37 -37 7 0 13 -2 13 -5 0 -3 7 -5 15 -5 8 0 15 -2 15 -5 0 -3 9 -5
20 -5 11 0 20 -2 20 -5 0 -3 22 -5 55 -5 33 0 55 2 55 5 0 3 13 5 30 5 17 0
30 2 30 5 0 3 11 5 25 5 14 0 25 2 25 5 0 3 8 5 18 5 14 0 21 4 32 15 8 8 17
15 20 15 7 0 100 93 100 100 0 3 7 12 15 20 9 9 15 19 15 27 0 7 2 13 5 13 3
0 5 7 5 15 0 8 2 15 5 15 3 0 5 5 5 10 0 8 3 10 15 10 15 0 15 0 15 -85 0 -53
-2 -85 -5 -85 -3 0 -5 -7 -5 -15 0 -8 -2 -15 -5 -15 -3 0 -5 -9 -5 -20 0 -11
-2 -20 -5 -20 -3 0 -5 -9 -5 -20 0 -11 -2 -20 -5 -20 -3 0 -5 -9 -5 -20 0 -11
-2 -20 -5 -20 -3 0 -5 -4 -5 -10 0 -5 -2 -10 -5 -10 -3 0 -5 -9 -5 -20 0 -11
-2 -20 -5 -20 -3 0 -5 -4 -5 -10 0 -5 -2 -10 -5 -10 -3 0 -5 -7 -5 -15 0 -8
-2 -15 -5 -15 -3 0 -5 -4 -5 -10 0 -5 -2 -10 -5 -10 -3 0 -5 -7 -5 -15 0 -8
-2 -15 -5 -15 -3 0 -5 -4 -5 -10 0 -5 -2 -10 -5 -10 -3 0 -5 -4 -5 -10 0 -5
-2 -10 -5 -10 -3 0 -5 -4 -5 -10 0 -5 -2 -10 -5 -10 -3 0 -5 -7 -5 -15 0 -8
-2 -15 -5 -15 -3 0 -5 -4 -5 -8 0 -4 -7 -14 -15 -22 -9 -9 -15 -19 -15 -27 0
-7 -2 -13 -5 -13 -3 0 -5 -4 -5 -8 0 -4 -7 -14 -15 -22 -8 -8 -15 -18 -15 -22
0 -4 -2 -8 -5 -8 -3 0 -5 -4 -5 -9 0 -5 -4 -12 -10 -16 -5 -4 -10 -11 -10 -16
0 -5 -2 -9 -5 -9 -3 0 -5 -4 -5 -10 0 -5 -2 -10 -5 -10 -3 0 -5 -3 -5 -8 0 -4
-18 -25 -40 -47 -22 -22 -40 -43 -40 -47 0 -5 -2 -8 -5 -8 -3 0 -5 -4 -5 -8 0
-4 -7 -14 -15 -22 -8 -8 -15 -17 -15 -20 0 -8 -13 -20 -22 -20 -4 0 -8 -2 -8
-5 0 -3 -4 -5 -10 -5 -5 0 -10 -2 -10 -5 0 -3 -11 -5 -25 -5 -14 0 -25 -2 -25
-5 0 -3 -13 -5 -28 -5 -26 0 -29 1 -47 20 -11 11 -23 20 -27 20 -4 0 -8 2 -8
5 0 3 -11 5 -25 5 -22 0 -25 -1 -25 -10 0 -5 -2 -10 -5 -10 -3 0 -5 -11 -5
-25 0 -14 -2 -25 -5 -25 -3 0 -5 -25 -5 -65 0 -40 -2 -65 -5 -65 -3 0 -5 -8
-5 -18 0 -17 27 -52 40 -52 3 0 17 -11 30 -25 13 -14 28 -25 32 -25 4 0 8 -2
8 -5 0 -3 7 -5 15 -5 8 0 15 -2 15 -5 0 -3 9 -5 20 -5 11 0 20 -2 20 -5 0 -3
9 -5 20 -5 11 0 20 -2 20 -5 0 -3 11 -5 25 -5 14 0 25 2 25 5 0 3 9 5 20 5 11
0 20 2 20 5 0 3 7 5 15 5 8 0 15 2 15 5 0 3 7 5 15 5 8 0 15 2 15 5 0 3 5 5
10 5 6 0 10 2 10 5 0 3 5 5 10 5 6 0 10 2 10 5 0 3 4 5 9 5 5 0 12 5 16 10 4
6 10 10 14 10 4 0 13 7 21 15 8 8 17 15 20 15 7 0 100 93 100 100 0 11 -15 20
-32 20 -17 0 -18 1 -18 15 0 14 1 15 20 15 11 0 20 -2 20 -5 0 -3 6 -5 13 -5
13 0 67 49 67 61 0 4 5 10 10 14 11 8 14 33 4 36 -3 1 12 20 35 43 39 39 41
41 41 63 0 13 2 23 5 23 11 0 5 26 -10 40 -17 16 -20 30 -5 30 6 0 10 -2 10
-5 0 -3 10 -5 23 -5 23 0 37 8 37 22 0 4 2 8 5 8 3 0 5 7 5 15 0 8 2 15 5 15
3 0 5 4 5 9 0 5 4 12 10 16 5 4 10 11 10 16 0 5 2 9 5 9 3 0 5 9 5 20 0 11 2
20 5 20 3 0 5 6 5 14 0 8 4 17 10 21 6 4 10 13 10 20 0 7 4 16 10 20 6 4 10
11 10 16 0 5 2 9 5 9 3 0 5 13 5 30 0 17 2 30 5 30 3 0 5 6 5 13 0 7 3 16 7
20 8 8 23 9 23 2 0 -3 5 -5 10 -5 6 0 10 -2 10 -5 0 -3 8 -5 18 -5 10 0 21 -3
25 -7 8 -8 10 -33 2 -33 -3 0 -5 -13 -5 -30 0 -17 2 -30 5 -30 3 0 5 -11 5
-25 0 -14 -2 -25 -5 -25 -3 0 -5 -18 -5 -45 0 -27 -2 -45 -5 -45 -3 0 -5 -11
-5 -25 0 -14 -2 -25 -5 -25 -3 0 -5 -9 -5 -20 0 -11 2 -20 5 -20 10 0 5 -16
-10 -30 -8 -8 -15 -18 -15 -22 0 -4 -2 -8 -5 -8 -3 0 -5 -17 -5 -40 0 -23 -2
-40 -5 -40 -3 0 -5 -4 -5 -10 0 -5 -2 -10 -5 -10 -3 0 -5 -4 -5 -10 0 -5 -2
-10 -5 -10 -3 0 -5 -11 -5 -25 0 -14 -2 -25 -5 -25 -3 0 -5 -15 -5 -35 0 -28
-1 -35 -8 -35 -29 0 -31 -48 -2 -75 25 -24 20 -35 -15 -35 -11 0 -24 -3 -28
-7 -9 -9 -9 -31 -1 -34 4 -2 3 -6 -5 -13 -6 -5 -11 -15 -11 -23 0 -7 -2 -13
-5 -13 -3 0 -5 -4 -5 -10 0 -5 -2 -10 -5 -10 -3 0 -5 -4 -5 -9 0 -5 -4 -12
-10 -16 -8 -5 -10 -13 -10 -31 0 -13 -2 -24 -5 -24 -3 0 -5 -4 -5 -10 0 -5 -2
-10 -5 -10 -3 0 -5 -7 -5 -15 0 -8 -2 -15 -5 -15 -3 0 -5 -3 -5 -8 0 -8 -32
-42 -40 -42 -9 0 -30 -24 -30 -35 0 -11 21 -35 30 -35 3 0 12 -7 20 -15 8 -8
17 -15 20 -15 3 0 14 -9 25 -20 11 -11 22 -20 25 -20 7 0 20 -13 20 -20 0 -8
34 -40 42 -40 5 0 8 2 8 5 0 3 3 5 8 5 16 0 42 33 42 55 0 23 -55 85 -75 85
-17 0 -28 13 -18 23 14 13 28 8 58 -23 23 -24 33 -30 45 -30 17 0 40 19 40 32
0 5 2 8 5 8 3 0 5 4 5 10 0 5 3 10 6 11 9 3 -19 29 -31 29 -21 0 -31 19 -18
33 8 8 23 9 23 2 0 -3 7 -5 15 -5 8 0 15 -2 15 -5 0 -7 15 -6 23 2 4 4 7 15 7
24 0 11 3 19 10 24 5 4 10 10 10 14 0 4 7 13 15 21 14 13 15 16 8 22 -8 9 -23
11 -23 3 0 -3 -4 -5 -10 -5 -7 0 -10 3 -10 10 0 7 3 10 10 10 6 0 10 2 10 5 0
3 4 5 8 5 9 0 22 12 22 21 0 4 5 10 10 14 5 4 10 10 10 14 0 9 -23 31 -32 31
-5 0 -8 2 -8 5 0 3 -3 5 -8 5 -7 0 -32 21 -32 27 0 2 7 3 15 3 8 0 15 -2 15
-5 0 -3 5 -5 10 -5 6 0 10 -2 10 -5 0 -8 45 -6 53 2 17 18 0 73 -23 73 -8 0
-20 13 -20 22 0 6 5 8 15 8 8 0 15 -2 15 -5 0 -11 35 -5 48 7 17 18 12 38 -10
38 -4 0 -8 1 -8 3 0 5 14 17 20 17 9 0 24 16 16 19 -3 1 -6 6 -6 11 0 6 -2 10
-5 10 -3 0 -5 2 -5 5 0 3 6 5 13 5 14 0 27 10 27 22 0 4 2 8 5 8 3 0 5 9 5 20
0 11 2 20 5 20 3 0 5 5 5 10 0 6 2 10 5 10 3 0 5 15 5 35 0 20 2 35 5 35 3 0
5 5 5 10 0 6 2 10 5 10 3 0 5 7 5 15 0 8 2 15 5 15 3 0 5 11 5 25 0 14 2 25 5
25 3 0 5 12 5 28 0 29 14 52 32 52 6 0 8 6 8 25 0 14 2 25 5 25 3 0 5 5 5 10
0 6 -2 10 -5 10 -11 0 -5 35 7 48 15 15 23 15 33 2 4 -5 11 -10 16 -10 5 0 9
-2 9 -5 0 -3 9 -5 20 -5 24 0 28 -17 8 -38 -16 -15 -38 -16 -38 -2 0 7 -3 10
-10 10 -7 0 -10 -3 -10 -10 0 -5 2 -10 5 -10 3 0 5 -4 5 -10 0 -5 -2 -10 -5
-10 -3 0 -5 -11 -5 -25 0 -14 -2 -25 -5 -25 -3 0 -5 -18 -5 -45 0 -27 -2 -45
-5 -45 -3 0 -5 -13 -5 -30 0 -17 2 -30 5 -30 9 0 5 -18 -5 -25 -11 -8 -15 -55
-5 -55 3 0 5 -7 5 -15 0 -8 -2 -15 -5 -15 -3 0 -5 -13 -5 -30 0 -17 2 -30 5
-30 13 0 3 -18 -25 -45 -28 -27 -30 -31 -30 -52 0 -22 1 -23 15 -23 8 0 15 2
15 5 0 3 3 5 8 5 10 0 62 52 62 62 0 5 2 8 5 8 3 0 5 5 5 10 0 6 2 10 5 10 3
0 5 10 5 23 0 22 8 37 20 37 7 0 20 13 20 20 0 3 7 12 15 20 8 8 15 17 15 20
0 4 5 10 11 15 20 18 3 25 -63 25 -55 0 -58 1 -58 10 0 9 3 10 63 10 65 0 77
3 77 22 0 4 2 8 5 8 3 0 5 4 5 9 0 5 5 12 10 16 6 4 10 10 10 14 0 4 9 15 20
26 11 11 20 23 20 27 0 4 2 8 5 8 3 0 5 3 5 8 0 12 23 32 37 32 12 0 13 -2 13
-25 0 -14 -2 -25 -5 -25 -3 0 -5 -4 -5 -10 0 -5 -2 -10 -5 -10 -3 0 -5 -4 -5
-10 0 -5 -2 -10 -5 -10 -7 0 -6 -15 2 -23 8 -8 23 -9 23 -2 0 3 6 5 13 5 16 0
87 70 87 86 0 7 5 15 10 19 6 4 10 10 10 14 0 12 24 31 40 31 28 0 41 -30 20
-45 -6 -4 -10 -13 -10 -20 0 -7 -4 -16 -10 -20 -5 -4 -10 -11 -10 -16 0 -5 -2
-9 -5 -9 -3 0 -5 -7 -5 -15 0 -8 -2 -15 -5 -15 -8 0 -6 -35 3 -43 7 -7 8 -7
17 2 10 13 25 14 25 3 0 -11 -12 -22 -25 -22 -12 0 -25 -11 -25 -21 0 -4 -4
-10 -10 -14 -5 -4 -10 -11 -10 -15 0 -4 -4 -11 -10 -15 -10 -7 -14 -25 -5 -25
9 0 5 -28 -5 -35 -8 -5 -10 -13 -10 -31 0 -13 -2 -24 -5 -24 -3 0 -5 -4 -5
-10 0 -5 -2 -10 -5 -10 -3 0 -5 -4 -5 -10 0 -5 -2 -10 -5 -10 -3 0 -5 -7 -5
-15 0 -8 -2 -15 -5 -15 -3 0 -5 -7 -5 -15 0 -8 -2 -15 -5 -15 -9 0 -5 -28 5
-35 18 -13 9 -45 -12 -45 -5 0 -8 -4 -8 -10 0 -5 -2 -10 -5 -10 -3 0 -5 -7 -5
-15 0 -8 -2 -15 -5 -15 -3 0 -5 -18 -5 -45 0 -27 -2 -45 -5 -45 -3 0 -5 -4 -5
-10 0 -5 -2 -10 -5 -10 -7 0 -6 -19 1 -22 5 -2 5 -4 0 -6 -7 -3 -8 -32 -1 -32
9 0 5 -28 -5 -35 -5 -4 -10 -13 -10 -19 0 -7 -6 -18 -15 -26 -9 -8 -15 -19
-15 -27 0 -7 -3 -13 -6 -14 -4 -2 -5 -4 -3 -6 2 -2 19 12 38 31 36 36 36 36
66 36 38 0 76 -32 49 -41 -4 -2 -3 -6 5 -13 11 -10 16 -36 6 -36 -3 0 -5 -9
-5 -20 0 -11 -2 -20 -5 -20 -3 0 -5 -7 -5 -15 0 -8 -2 -15 -5 -15 -3 0 -5 -4
-5 -10 0 -5 -2 -10 -5 -10 -3 0 -5 -7 -5 -15 0 -8 -2 -15 -5 -15 -3 0 -5 -4
-5 -10 0 -7 3 -10 10 -10 8 0 10 3 10 14 0 8 4 17 10 21 6 4 10 13 10 21 0 8
2 14 5 14 3 0 5 9 5 20 0 11 2 20 5 20 3 0 5 5 5 10 0 6 2 10 5 10 3 0 5 5 5
10 0 6 2 10 5 10 3 0 5 7 5 15 0 8 2 15 5 15 3 0 5 4 5 8 0 12 13 22 27 22 7
0 13 2 13 5 0 3 3 5 8 5 10 0 42 32 42 42 0 5 2 8 5 8 3 0 5 7 5 15 0 8 2 15
5 15 3 0 5 5 5 10 0 7 -3 10 -10 10 -5 0 -10 -2 -10 -5 0 -7 -19 -6 -21 1 -2
4 -6 3 -13 -5 -14 -16 -26 -14 -26 4 0 12 2 15 10 15 6 0 10 3 10 8 0 11 16
26 19 18 1 -3 6 -6 11 -6 7 0 10 -3 10 -10 0 -14 4 -13 20 5 8 8 17 15 20 15
10 0 30 24 30 36 0 7 4 15 10 19 6 4 10 10 10 14 0 9 23 31 32 31 5 0 8 2 8 5
0 3 2 5 5 5 3 0 5 -7 5 -15 0 -8 -2 -15 -5 -15 -13 0 -4 -27 15 -45 19 -18 28
-45 15 -45 -3 0 -5 -9 -5 -20 0 -11 2 -20 5 -20 3 0 5 -4 5 -10 0 -5 2 -10 5
-10 3 0 5 -4 5 -10 0 -12 28 -15 31 -4 2 4 8 1 18 -10 11 -12 19 -16 33 -16
15 0 18 -2 18 -10 0 -9 -3 -10 -25 -10 -14 0 -25 2 -25 5 0 3 -4 5 -9 5 -5 0
-12 4 -16 10 -11 16 -15 12 -15 -15 0 -14 2 -25 5 -25 3 0 5 -6 5 -13 0 -8 6
-18 15 -27 15 -14 21 -40 10 -40 -3 0 -5 -4 -5 -10 0 -5 2 -10 5 -10 3 0 5 -6
5 -14 0 -8 4 -17 10 -21 11 -8 15 -55 5 -55 -3 0 -5 -15 -5 -34 0 -28 -2 -35
-10 -41 -14 -10 -12 -29 5 -45 15 -14 21 -40 10 -40 -3 0 -5 -9 -5 -20 0 -11
2 -20 5 -20 3 0 5 -28 5 -75 0 -47 2 -75 5 -75 3 0 5 -7 5 -15 0 -13 2 -15 15
-15 8 0 15 2 15 5 0 3 4 5 9 5 5 0 12 5 16 10 4 6 11 10 16 10 7 0 9 4 9 15 0
12 2 15 10 15 9 0 10 -3 10 -24 0 -18 2 -26 10 -31 21 -15 4 -65 -22 -65 -4 0
-8 -3 -9 -6 -3 -7 -29 17 -29 26 0 3 -6 11 -13 18 -12 13 -12 13 -27 -3 -8 -8
-18 -15 -22 -15 -4 0 -8 -2 -8 -5 0 -3 -7 -5 -15 -5 -8 0 -15 -2 -15 -5 0 -3
-4 -5 -10 -5 -5 0 -10 -2 -10 -5 0 -3 -3 -5 -8 -5 -8 0 -42 -32 -42 -40 0 -7
-13 -20 -20 -20 -8 0 -40 -33 -40 -41 0 -4 -4 -10 -10 -14 -8 -6 -10 -13 -10
-36 0 -16 -2 -29 -5 -29 -3 0 -5 -20 -5 -50 0 -30 2 -50 5 -50 3 0 5 -4 5 -8
0 -4 9 -16 20 -27 11 -11 20 -22 20 -26 0 -4 5 -10 10 -14 6 -4 10 -11 10 -15
0 -4 5 -11 10 -15 16 -11 12 -29 -10 -50 -11 -11 -20 -22 -20 -25 0 -7 -43
-50 -50 -50 -3 0 -12 -7 -20 -15 -8 -8 -17 -15 -20 -15 -3 0 -12 -7 -20 -15
-8 -8 -17 -15 -20 -15 -3 0 -14 -9 -25 -20 -11 -11 -22 -20 -26 -20 -4 0 -10
-4 -14 -10 -4 -6 -13 -10 -21 -10 -8 0 -14 -2 -14 -5 0 -3 -4 -5 -10 -5 -5 0
-10 -2 -10 -5 0 -3 -4 -5 -10 -5 -5 0 -10 -2 -10 -5 0 -3 -7 -5 -15 -5 -8 0
-15 -2 -15 -5 0 -3 -7 -5 -15 -5 -8 0 -15 -2 -15 -5 0 -3 -4 -5 -10 -5 -5 0
-10 -2 -10 -5 0 -3 -7 -5 -15 -5 -8 0 -15 -2 -15 -5 0 -3 -7 -5 -15 -5 -8 0
-15 -2 -15 -5 0 -3 -9 -5 -20 -5 -11 0 -20 -2 -20 -5 0 -3 -9 -5 -20 -5 -11 0
-20 -2 -20 -5 0 -3 -11 -5 -25 -5 -14 0 -25 -2 -25 -5 0 -3 -22 -5 -55 -5 -33
0 -55 2 -55 5 0 3 -45 5 -125 5 -80 0 -125 2 -125 5 0 3 -13 5 -30 5 -17 0
-30 2 -30 5 0 3 -9 5 -20 5 -11 0 -20 2 -20 5 0 3 -4 5 -10 5 -5 0 -10 2 -10
5 0 3 -3 5 -8 5 -9 0 -122 113 -122 122 0 5 -2 8 -5 8 -3 0 -5 5 -5 10 0 6 -2
10 -5 10 -3 0 -5 23 -5 58 0 43 -2 59 -7 65 -8 8 -63 10 -63 2 0 -3 -9 -5 -20
-5 -11 0 -20 -2 -20 -5 0 -3 -4 -5 -10 -5 -5 0 -10 -2 -10 -5 0 -3 -4 -5 -9
-5 -5 0 -12 -4 -16 -10 -4 -5 -11 -10 -15 -10 -4 0 -11 -5 -15 -10 -4 -6 -11
-10 -15 -10 -4 0 -11 -4 -15 -10 -4 -5 -10 -10 -14 -10 -9 0 -31 -23 -31 -32
0 -5 -2 -8 -5 -8 -3 0 -5 -4 -5 -10 0 -5 -2 -10 -5 -10 -3 0 -5 -4 -5 -10 0
-5 -2 -10 -5 -10 -3 0 -5 -4 -5 -10 0 -5 -2 -10 -5 -10 -3 0 -5 -7 -5 -15 0
-8 -2 -15 -5 -15 -3 0 -5 -9 -5 -20 0 -11 -2 -20 -5 -20 -3 0 -5 -20 -5 -50 0
-30 -2 -50 -5 -50 -3 0 -5 -4 -5 -10 0 -5 -2 -10 -5 -10 -11 0 -5 -26 10 -40
9 -9 15 -19 15 -27 0 -7 2 -13 5 -13 3 0 5 -4 5 -9 0 -5 4 -12 10 -16 5 -4 10
-11 10 -15 0 -4 4 -11 10 -15 5 -4 10 -10 10 -14 0 -4 7 -13 15 -21 8 -8 15
-17 15 -20 0 -7 113 -120 120 -120 3 0 12 -7 20 -15 9 -9 19 -15 27 -15 7 0
13 -2 13 -5 0 -3 60 -5 170 -5 110 0 170 2 170 5 0 3 25 5 65 5 40 0 65 2 65
5 0 3 13 5 30 5 17 0 30 2 30 5 0 3 13 5 30 5 17 0 30 2 30 5 0 3 11 5 25 5
14 0 25 2 25 5 0 3 11 5 25 5 14 0 25 2 25 5 0 3 9 5 20 5 11 0 20 2 20 5 0 3
13 5 30 5 17 0 30 2 30 5 0 3 9 5 20 5 11 0 20 2 20 5 0 3 9 5 20 5 11 0 20 2
20 5 0 3 9 5 20 5 11 0 20 2 20 5 0 3 9 5 20 5 11 0 20 2 20 5 0 3 11 5 25 5
14 0 25 2 25 5 0 8 25 6 33 -2 12 -12 9 -16 -43 -68 -27 -27 -50 -52 -50 -55
0 -8 -33 -40 -41 -40 -4 0 -10 -4 -14 -10 -4 -5 -11 -10 -15 -10 -4 0 -11 -4
-15 -10 -4 -5 -11 -10 -15 -10 -4 0 -11 -5 -15 -10 -4 -6 -11 -10 -16 -10 -5
0 -9 -2 -9 -5 0 -3 -4 -5 -10 -5 -5 0 -10 -2 -10 -5 0 -3 -4 -5 -10 -5 -5 0
-10 -2 -10 -5 0 -3 -4 -5 -10 -5 -5 0 -10 -2 -10 -5 0 -3 -7 -5 -15 -5 -8 0
-15 -2 -15 -5 0 -3 -4 -5 -10 -5 -5 0 -10 -2 -10 -5 0 -3 -4 -5 -10 -5 -5 0
-10 -2 -10 -5 0 -3 -4 -5 -10 -5 -5 0 -10 -2 -10 -5 0 -3 -4 -5 -9 -5 -5 0
-12 -4 -16 -10 -5 -7 -13 -10 -26 -10 -10 0 -19 -2 -19 -5 0 -3 -9 -5 -20 -5
-11 0 -20 -2 -20 -5 0 -3 -7 -5 -15 -5 -8 0 -15 -2 -15 -5 0 -3 -7 -5 -15 -5
-8 0 -15 -2 -15 -5 0 -3 -7 -5 -15 -5 -8 0 -15 -2 -15 -5 0 -3 -4 -5 -10 -5
-5 0 -10 -2 -10 -5 0 -3 -4 -5 -10 -5 -5 0 -10 -2 -10 -5 0 -3 -4 -5 -10 -5
-8 0 -10 -3 -10 -20 0 -11 2 -20 5 -20 3 0 5 -23 5 -60 0 -37 2 -60 5 -60 3 0
5 -4 5 -10 0 -5 2 -10 5 -10 3 0 5 -4 5 -8 0 -4 7 -14 15 -22 8 -8 15 -17 15
-20 0 -8 54 -60 62 -60 5 0 8 -2 8 -5 0 -3 5 -5 10 -5 6 0 10 -2 10 -5 0 -3 5
-5 10 -5 6 0 10 -2 10 -5 0 -3 5 -5 10 -5 6 0 10 -2 10 -5 0 -3 5 -5 10 -5 6
0 10 -2 10 -5 0 -3 7 -5 15 -5 8 0 15 -2 15 -5 0 -3 7 -5 15 -5 8 0 15 -2 15
-5 0 -8 25 -6 33 2 4 4 7 11 7 15 0 6 6 8 30 8 17 0 30 2 30 5 0 3 3 5 8 5 9
0 32 22 32 30 0 3 7 12 15 20 17 16 18 22 7 33 -7 7 -8 7 -17 -2 -10 -13 -18
-14 -28 -4 -9 9 10 33 25 33 5 0 8 2 8 5 0 3 3 5 8 5 9 0 42 32 42 40 0 4 5
10 11 15 9 9 9 10 2 17 -8 9 -23 11 -23 3 0 -3 -13 -5 -30 -5 -27 0 -30 1 -30
10 0 9 3 10 35 10 20 0 35 2 35 5 0 3 8 5 18 5 17 0 42 18 42 30 0 3 9 14 20
25 11 11 20 22 20 25 0 3 9 14 20 25 11 11 20 24 20 30 0 6 9 19 20 30 11 11
20 23 20 27 0 4 2 8 5 8 3 0 5 5 5 10 0 6 2 10 5 10 3 0 5 5 5 10 0 6 2 10 5
10 3 0 5 5 5 10 0 6 2 10 5 10 3 0 5 4 5 8 0 4 7 14 15 22 8 8 15 17 15 21 0
4 4 10 10 14 5 4 10 11 10 16 0 5 2 9 5 9 3 0 5 4 5 8 0 4 9 16 20 27 11 11
20 22 20 25 0 3 32 37 70 75 39 38 70 72 70 75 0 12 35 40 50 40 35 0 39 -27
10 -55 -18 -17 -20 -22 -20 -42 0 -13 -2 -23 -5 -23 -3 0 -5 -4 -5 -10 0 -5
-2 -10 -5 -10 -3 0 -5 -7 -5 -15 0 -8 -2 -15 -5 -15 -3 0 -5 -7 -5 -15 0 -8
-2 -15 -5 -15 -3 0 -5 -7 -5 -15 0 -8 -2 -15 -5 -15 -3 0 -5 -4 -5 -10 0 -5
-2 -10 -5 -10 -3 0 -5 -4 -5 -10 0 -5 -2 -10 -5 -10 -3 0 -5 -4 -5 -10 0 -5
-2 -10 -5 -10 -3 0 -5 -4 -5 -10 0 -5 -2 -10 -5 -10 -3 0 -5 -4 -5 -10 0 -5
-2 -10 -5 -10 -3 0 -5 -9 -5 -19 0 -13 -3 -21 -10 -26 -6 -4 -10 -11 -10 -15
0 -4 -4 -11 -10 -15 -10 -7 -14 -25 -5 -25 3 0 5 -6 5 -13 0 -14 -30 -47 -42
-47 -6 0 -8 -5 -8 -15 0 -12 2 -15 10 -15 8 0 10 -3 10 -15 0 -8 -2 -15 -5
-15 -3 0 -5 -3 -5 -8 0 -4 -13 -21 -30 -37 -16 -16 -30 -33 -30 -37 0 -5 -2
-8 -5 -8 -7 0 -6 -29 1 -31 4 -1 -4 -13 -20 -28 -14 -14 -26 -28 -26 -31 0 -7
-33 -40 -40 -40 -7 0 -40 -33 -40 -40 0 -7 -23 -30 -30 -30 -8 0 -50 -44 -50
-52 0 -5 -2 -8 -5 -8 -7 0 -6 -29 1 -32 5 -2 5 -4 0 -6 -3 -2 -6 -7 -6 -12 0
-6 -2 -10 -5 -10 -3 0 -5 -4 -5 -8 0 -9 12 -22 20 -22 9 0 33 -26 26 -29 -20
-7 7 -51 31 -51 7 0 13 -2 13 -5 0 -3 5 -5 10 -5 6 0 10 -2 10 -5 0 -3 4 -5 8
-5 4 0 16 -9 27 -20 11 -11 22 -20 26 -20 4 0 10 -5 14 -10 4 -6 13 -10 21
-10 8 0 14 -2 14 -5 0 -3 7 -5 15 -5 8 0 15 -2 15 -5 0 -3 28 -5 73 -5 73 0
73 0 87 15 8 8 17 15 20 15 8 0 20 13 20 22 0 4 2 8 5 8 3 0 5 5 5 10 0 6 2
10 5 10 3 0 5 5 5 10 0 6 2 10 5 10 3 0 5 5 5 10 0 6 2 10 5 10 3 0 5 11 5 25
0 14 -2 25 -5 25 -11 0 -5 26 10 40 15 14 21 40 10 40 -3 0 -5 14 -5 33 0 34
-6 47 -22 47 -4 0 -8 2 -8 5 0 3 -8 5 -18 5 -16 0 -32 9 -32 17 0 2 13 3 28 3
34 0 42 7 42 35 0 21 -14 45 -19 31 -3 -9 -21 -7 -21 2 0 9 12 22 20 22 19 0
39 45 24 52 -5 2 -5 4 0 6 3 2 6 9 6 17 0 8 2 15 5 15 3 0 5 7 5 15 0 8 2 15
5 15 3 0 5 5 5 10 0 6 -2 10 -5 10 -3 0 -5 5 -5 10 0 6 3 10 8 10 12 0 22 13
22 27 0 7 2 13 5 13 3 0 5 5 5 10 0 6 2 10 5 10 3 0 5 13 5 28 0 26 1 29 20
47 27 26 29 55 5 55 -8 0 -15 2 -15 5 0 3 -11 5 -25 5 -22 0 -25 1 -25 10 0 9
3 10 43 10 50 0 67 10 67 42 0 10 2 18 5 18 3 0 5 5 5 10 0 6 2 10 5 10 3 0 5
7 5 15 0 8 2 15 5 15 3 0 5 9 5 20 0 11 2 20 5 20 3 0 5 4 5 8 0 10 12 22 22
22 5 0 8 -4 8 -10 0 -5 2 -10 5 -10 3 0 5 -23 5 -60 0 -37 -2 -60 -5 -60 -3 0
-5 -17 -5 -40 0 -23 -2 -40 -5 -40 -3 0 -5 -20 -5 -50 0 -30 -2 -50 -5 -50 -3
0 -5 -11 -5 -25 0 -14 2 -25 5 -25 3 0 5 -4 5 -10 0 -5 3 -10 6 -11 4 -2 3 -6
-5 -13 -6 -5 -11 -13 -11 -18 0 -4 -2 -8 -5 -8 -3 0 -5 -28 -5 -73 0 -73 3
-87 20 -87 6 0 20 -12 20 -17 0 -2 -4 -3 -8 -3 -4 0 -11 -3 -15 -7 -8 -8 -10
-33 -2 -33 3 0 5 -9 5 -20 0 -11 2 -20 5 -20 3 0 5 -18 5 -45 0 -27 2 -45 5
-45 3 0 5 -11 5 -25 0 -14 2 -25 5 -25 3 0 5 -4 5 -10 0 -5 2 -10 5 -10 3 0 5
-8 5 -18 0 -18 46 -72 61 -72 4 0 10 -4 14 -10 4 -5 11 -10 16 -10 5 0 9 -2 9
-5 0 -3 7 -5 15 -5 8 0 15 -2 15 -5 0 -3 9 -5 20 -5 11 0 20 -2 20 -5 0 -3 30
-5 80 -5 50 0 80 2 80 5 0 3 7 5 15 5 8 0 15 2 15 5 0 3 3 5 8 5 14 0 52 43
52 60 0 17 -10 30 -22 30 -4 0 -8 2 -8 5 0 3 -4 5 -10 5 -5 0 -10 2 -10 5 0 3
-3 5 -8 5 -10 0 -42 32 -42 42 0 11 17 10 25 -2 4 -6 13 -10 21 -10 8 0 14 -2
14 -5 0 -3 9 -5 20 -5 11 0 20 -3 21 -6 2 -5 5 -4 11 2 9 9 12 84 3 84 -3 0
-5 7 -5 15 0 8 -2 15 -5 15 -3 0 -5 5 -5 10 0 6 -2 10 -5 10 -3 0 -5 4 -5 8 0
4 -9 16 -20 27 -11 11 -20 23 -20 27 0 4 -2 8 -5 8 -3 0 -5 3 -5 8 0 4 -13 21
-30 37 -16 16 -30 32 -30 35 0 3 -7 12 -15 20 -8 8 -15 18 -15 22 0 4 -2 8 -5
8 -3 0 -5 4 -5 9 0 5 -4 12 -10 16 -5 4 -10 11 -10 15 0 4 -5 11 -10 15 -7 5
-10 13 -10 26 0 10 -2 19 -5 19 -3 0 -5 11 -5 25 0 14 -2 25 -5 25 -3 0 -5 5
-5 10 0 6 -2 10 -5 10 -3 0 -5 4 -5 8 0 4 -7 14 -15 22 -18 16 -19 25 -5 35
21 15 11 75 -12 75 -6 0 -8 5 -8 20 0 11 2 20 5 20 3 0 5 5 5 10 0 6 2 10 5
10 3 0 5 9 5 20 0 11 -2 20 -5 20 -3 0 -5 18 -5 45 0 27 -2 45 -5 45 -3 0 -5
5 -5 10 0 6 -2 10 -5 10 -7 0 -6 15 2 23 4 4 11 7 15 7 7 0 8 7 8 45 0 27 -2
45 -5 45 -3 0 -5 5 -5 10 0 6 2 10 5 10 3 0 5 5 5 10 0 8 3 10 18 10 25 0 72
-47 72 -72 0 -10 2 -18 5 -18 3 0 5 -8 5 -18 0 -15 4 -22 25 -42 23 -23 32
-40 20 -40 -10 0 -6 -37 5 -45 6 -4 10 -11 10 -16 0 -5 2 -9 5 -9 3 0 5 -7 5
-15 0 -8 2 -15 5 -15 3 0 5 -9 5 -20 0 -11 -2 -20 -5 -20 -3 0 -5 -4 -5 -8 0
-9 12 -22 20 -22 8 0 30 -23 30 -32 0 -5 2 -8 5 -8 3 0 5 -15 5 -34 0 -28 2
-35 10 -41 6 -4 10 -11 10 -16 0 -5 2 -9 5 -9 3 0 5 -6 5 -14 0 -8 4 -17 10
-21 9 -6 10 -13 10 -46 0 -23 2 -39 5 -39 3 0 5 -4 5 -10 0 -5 2 -10 5 -10 3
0 5 -4 5 -10 0 -5 -2 -10 -5 -10 -3 0 -5 -4 -5 -9 0 -5 -4 -12 -10 -16 -17
-12 -9 -45 10 -45 21 0 24 -22 5 -40 -15 -14 -21 -40 -10 -40 3 0 5 -7 5 -15
0 -8 2 -15 5 -15 3 0 5 -4 5 -10 0 -5 2 -10 5 -10 3 0 5 -9 5 -20 0 -11 2 -20
5 -20 3 0 5 -9 5 -20 0 -11 2 -20 5 -20 3 0 5 -3 5 -8 0 -9 93 -102 102 -102
5 0 8 -2 8 -5 0 -3 5 -5 10 -5 6 0 10 -2 10 -5 0 -3 5 -5 10 -5 6 0 10 -2 10
-5 0 -3 7 -5 15 -5 8 0 15 -2 15 -5 0 -3 5 -5 10 -5 6 0 10 2 10 5 0 3 7 5 15
5 8 0 15 2 15 5 0 3 5 5 10 5 7 0 10 3 10 10 0 9 -3 10 -25 10 -19 0 -25 2
-25 8 0 12 13 22 27 22 7 0 13 2 13 5 0 3 4 5 9 5 5 0 12 5 16 10 4 6 11 10
15 10 4 0 11 5 15 10 4 6 11 10 15 10 4 0 11 4 15 10 4 5 11 10 16 10 5 0 9 2
9 5 0 3 3 5 8 5 8 0 72 62 72 70 0 8 13 20 22 20 15 0 8 16 -18 41 -16 15 -24
27 -20 28 3 1 6 6 6 11 0 5 3 10 6 12 5 2 5 4 -1 8 -6 4 -6 6 -1 8 10 5 7 17
-9 32 -8 8 -15 17 -15 20 0 7 -33 40 -40 40 -3 0 -14 9 -25 20 -11 11 -22 20
-25 20 -3 0 -23 18 -45 40 -22 22 -42 40 -45 40 -13 0 -50 45 -50 60 0 13 -8
24 -50 65 -27 27 -50 53 -50 56 0 4 -4 10 -10 14 -5 4 -10 11 -10 15 0 4 -4
11 -10 15 -5 4 -10 11 -10 15 0 4 -4 11 -10 15 -5 4 -10 11 -10 15 0 4 -4 11
-10 15 -5 4 -10 11 -10 15 0 4 -4 11 -10 15 -5 4 -10 11 -10 15 0 4 -4 11 -10
15 -5 4 -10 10 -10 14 0 4 -7 13 -15 21 -8 8 -15 18 -15 22 0 4 -2 8 -5 8 -3
0 -5 5 -5 10 0 6 -2 10 -5 10 -3 0 -5 5 -5 10 0 6 -2 10 -5 10 -3 0 -5 5 -5
10 0 6 -2 10 -5 10 -3 0 -5 4 -5 8 0 4 -9 16 -20 27 -11 11 -20 23 -20 27 0 4
-2 8 -5 8 -8 0 -6 25 2 33 8 8 23 9 23 2 0 -3 3 -5 8 -5 8 0 122 -112 122
-120 0 -7 43 -50 50 -50 8 0 70 -64 70 -71 0 -4 5 -10 10 -14 6 -4 10 -11 10
-15 0 -4 5 -11 10 -15 6 -4 10 -11 10 -15 0 -4 5 -11 10 -15 6 -4 10 -11 10
-15 0 -4 5 -11 10 -15 6 -4 10 -11 10 -16 0 -5 2 -9 5 -9 3 0 5 -4 5 -10 0 -5
2 -10 5 -10 3 0 5 -4 5 -9 0 -5 5 -12 10 -16 7 -5 10 -13 10 -24 0 -16 37 -61
50 -61 3 0 12 -7 20 -15 8 -8 17 -15 21 -15 4 0 10 -4 14 -10 4 -5 10 -10 14
-10 9 0 121 -113 121 -122 0 -5 -2 -8 -5 -8 -8 0 -6 -25 2 -33 4 -4 15 -7 25
-7 10 0 18 -2 18 -5 0 -3 6 -5 13 -5 9 0 21 -9 42 -30 21 -21 33 -30 42 -30 7
0 13 -2 13 -5 0 -3 9 -5 20 -5 11 0 20 -2 20 -5 0 -10 67 -6 75 5 4 6 11 10
16 10 5 0 9 2 9 5 0 3 4 5 8 5 4 0 16 9 27 20 11 11 22 20 25 20 3 0 12 7 20
15 8 8 17 15 20 15 17 0 50 45 50 67 0 13 -2 23 -5 23 -10 0 -5 16 10 30 9 9
15 19 15 27 0 7 2 13 5 13 10 0 5 36 -6 46 -8 7 -9 11 -5 13 7 2 8 41 1 41 -3
0 -5 5 -5 10 0 6 -2 10 -5 10 -3 0 -5 3 -5 8 0 10 -32 42 -42 42 -5 0 -8 2 -8
5 0 3 -4 5 -10 5 -5 0 -10 2 -10 5 0 3 -4 5 -10 5 -5 0 -10 2 -10 5 0 3 -4 5
-10 5 -5 0 -10 2 -10 5 0 3 -4 5 -10 5 -5 0 -10 2 -10 5 0 3 -7 5 -15 5 -8 0
-15 2 -15 5 0 3 -4 5 -10 5 -5 0 -10 2 -10 5 0 3 -4 5 -9 5 -5 0 -12 5 -16 10
-4 6 -13 10 -21 10 -8 0 -14 2 -14 5 0 3 -7 5 -15 5 -8 0 -15 2 -15 5 0 3 -9
5 -20 5 -11 0 -20 2 -20 5 0 3 -4 5 -10 5 -5 0 -10 2 -10 5 0 3 -9 5 -20 5
-11 0 -20 2 -20 5 0 3 -9 5 -20 5 -11 0 -20 2 -20 5 0 3 -9 5 -20 5 -11 0 -20
2 -20 5 0 3 -9 5 -20 5 -11 0 -20 2 -20 5 0 3 -7 5 -15 5 -8 0 -15 2 -15 5 0
3 -7 5 -15 5 -8 0 -15 2 -15 5 0 3 -7 5 -15 5 -8 0 -15 2 -15 5 0 3 -4 5 -10
5 -5 0 -10 2 -10 5 0 3 -7 5 -15 5 -8 0 -15 2 -15 5 0 3 -4 5 -10 5 -5 0 -10
2 -10 5 0 3 -4 5 -10 5 -5 0 -10 2 -10 5 0 3 -7 5 -15 5 -8 0 -15 2 -15 5 0 3
-4 5 -10 5 -5 0 -10 2 -10 5 0 3 -4 5 -10 5 -5 0 -10 2 -10 5 0 3 -4 5 -8 5
-4 0 -16 9 -27 20 -11 11 -22 20 -25 20 -8 0 -30 23 -30 32 0 15 34 10 50 -7
8 -8 18 -15 22 -15 4 0 8 -2 8 -5 0 -3 5 -5 10 -5 6 0 10 -2 10 -5 0 -3 9 -5
20 -5 11 0 20 -2 20 -5 0 -3 11 -5 25 -5 14 0 25 -2 25 -5 0 -3 7 -5 15 -5 8
0 15 -2 15 -5 0 -3 5 -5 10 -5 6 0 10 -2 10 -5 0 -3 7 -5 15 -5 8 0 15 -2 15
-5 0 -3 5 -5 10 -5 6 0 10 -2 10 -5 0 -3 5 -5 10 -5 6 0 10 2 10 5 0 3 17 5
40 5 23 0 40 -2 40 -5 0 -3 18 -5 45 -5 27 0 45 -2 45 -5 0 -3 13 -5 30 -5 17
0 30 -2 30 -5 0 -3 7 -5 15 -5 8 0 15 -2 15 -5 0 -3 25 -5 65 -5 40 0 65 -2
65 -5 0 -3 37 -5 100 -5 63 0 100 2 100 5 0 3 15 5 35 5 20 0 35 2 35 5 0 3 9
5 20 5 11 0 20 2 20 5 0 3 7 5 15 5 8 0 15 2 15 5 0 3 7 5 15 5 8 0 15 2 15 5
0 3 5 5 10 5 6 0 10 2 10 5 0 3 5 5 10 5 6 0 10 2 10 5 0 3 4 5 9 5 5 0 12 4
16 10 4 5 11 10 15 10 4 0 11 5 15 10 4 6 10 10 14 10 4 0 18 11 31 25 13 14
27 25 31 25 4 0 10 4 14 10 4 5 10 10 14 10 9 0 31 23 31 32 0 5 2 8 5 8 3 0
5 11 5 25 0 14 2 25 5 25 3 0 5 11 5 25 0 14 2 25 5 25 3 0 5 11 5 25 0 14 2
25 5 25 3 0 5 5 5 10 0 6 -2 10 -5 10 -3 0 -5 5 -5 10 0 6 -2 10 -5 10 -3 0
-5 17 -5 40 0 23 -2 40 -5 40 -3 0 -5 7 -5 15 0 8 -2 15 -5 15 -3 0 -5 5 -5
10 0 6 -2 10 -5 10 -3 0 -5 5 -5 10 0 6 -2 10 -5 10 -3 0 -5 6 -5 13 0 8 -6
18 -15 27 -8 8 -15 17 -15 20 0 9 -24 30 -35 30 -11 0 -25 11 -25 20 0 8 -34
40 -42 40 -5 0 -8 2 -8 5 0 3 -4 5 -10 5 -5 0 -10 2 -10 5 0 3 -4 5 -10 5 -5
0 -10 2 -10 5 0 3 -4 5 -10 5 -5 0 -10 2 -10 5 0 3 -4 5 -10 5 -5 0 -10 2 -10
5 0 3 -4 5 -10 5 -5 0 -10 2 -10 5 0 3 -4 5 -10 5 -5 0 -10 2 -10 5 0 3 -4 5
-10 5 -5 0 -10 2 -10 5 0 3 -7 5 -15 5 -8 0 -15 2 -15 5 0 8 -35 6 -43 -2 -5
-5 -7 -19 -7 -44 0 -31 -2 -38 -10 -44 -5 -4 -10 -11 -10 -16 0 -5 -2 -9 -5
-9 -3 0 -5 -4 -5 -10 0 -5 -2 -10 -5 -10 -3 0 -5 -6 -5 -14 0 -8 -4 -17 -10
-21 -6 -4 -10 -11 -10 -16 0 -5 -2 -9 -5 -9 -3 0 -5 -4 -5 -10 0 -5 -2 -10 -5
-10 -3 0 -5 -4 -5 -8 0 -4 -7 -14 -15 -22 -8 -8 -15 -17 -15 -20 0 -7 -43 -50
-50 -50 -3 0 -12 -7 -20 -15 -8 -8 -17 -15 -21 -15 -4 0 -10 -4 -14 -10 -4 -5
-11 -10 -16 -10 -5 0 -9 -2 -9 -5 0 -3 -4 -5 -10 -5 -5 0 -10 -2 -10 -5 0 -3
-4 -5 -10 -5 -5 0 -10 -2 -10 -5 0 -3 -4 -5 -10 -5 -5 0 -10 -2 -10 -5 0 -3
-4 -5 -10 -5 -5 0 -10 -2 -10 -5 0 -3 -4 -5 -10 -5 -5 0 -10 -2 -10 -5 0 -3
-7 -5 -15 -5 -8 0 -15 -2 -15 -5 0 -3 -7 -5 -15 -5 -8 0 -15 -2 -15 -5 0 -3
-7 -5 -15 -5 -8 0 -15 -2 -15 -5 0 -3 -9 -5 -20 -5 -11 0 -20 -2 -20 -5 0 -3
-42 -5 -115 -5 -73 0 -115 2 -115 5 0 3 -11 5 -25 5 -14 0 -25 2 -25 5 0 3
-13 5 -30 5 -17 0 -30 2 -30 5 0 3 -9 5 -20 5 -11 0 -20 2 -20 5 0 3 -11 5
-25 5 -14 0 -25 2 -25 5 0 3 -13 5 -30 5 -17 0 -30 2 -30 5 0 3 -11 5 -25 5
-14 0 -25 2 -25 5 0 3 -6 5 -13 5 -9 0 -21 9 -42 30 -16 17 -32 30 -35 30 -3
0 -12 7 -20 15 -8 8 -17 15 -20 15 -7 0 -50 43 -50 50 0 8 13 20 21 20 4 0 10
5 14 10 4 6 12 10 19 10 13 0 46 30 46 42 0 5 2 8 5 8 3 0 5 4 5 8 0 4 7 14
15 22 15 14 21 40 10 40 -9 0 -5 28 5 35 6 4 10 13 10 19 0 7 7 18 15 26 16
15 16 15 -5 35 -13 13 -20 24 -20 32 0 7 -2 13 -5 13 -3 0 -5 5 -5 10 0 6 2
10 5 10 3 0 5 7 5 15 0 8 -2 15 -5 15 -3 0 -5 5 -5 10 0 6 -2 10 -5 10 -3 0
-5 3 -5 8 0 10 -42 52 -52 52 -5 0 -8 2 -8 5 0 3 -4 5 -10 5 -5 0 -10 2 -10 5
0 3 -4 5 -10 5 -5 0 -10 2 -10 5 0 3 -4 5 -10 5 -5 0 -10 2 -10 5 0 3 -4 5
-10 5 -5 0 -10 2 -10 5 0 3 -7 5 -15 5 -8 0 -15 2 -15 5 0 3 -8 5 -18 5 -32 0
-32 -2 -32 160 0 156 -1 160 -25 160 -25 0 -43 -32 -25 -45 19 -13 14 -66 -7
-88 -32 -31 -53 -20 -53 28 0 26 2 33 11 40 10 10 4 25 -11 25 -3 0 -13 8 -23
17 -18 19 -24 43 -9 43 22 0 23 14 2 35 -29 27 -27 75 2 75 4 0 8 2 8 5 0 3 7
5 15 5 8 0 15 2 15 5 0 7 15 6 23 -2 4 -4 7 -15 7 -25 0 -10 2 -18 5 -18 3 0
5 -6 5 -14 0 -8 4 -17 10 -21 6 -4 10 -13 10 -21 0 -11 2 -14 10 -14 8 0 10 3
10 15 0 8 -2 15 -5 15 -3 0 -5 9 -5 20 0 11 -2 20 -5 20 -3 0 -5 4 -5 10 0 5
-3 10 -6 12 -5 2 -5 4 0 6 7 3 9 72 1 72 -8 0 -6 25 2 33 4 4 11 7 15 7 6 0 8
6 8 33 0 35 6 47 25 47 13 0 25 11 25 22 0 4 2 8 5 8 3 0 5 11 5 24 0 18 2 26
10 31 6 4 10 13 10 19 0 7 6 18 15 26 9 9 15 19 15 27 0 7 2 13 5 13 3 0 5 7
5 15 0 8 -2 15 -5 15 -9 0 -5 28 5 35 6 4 10 11 10 15 0 4 5 11 10 15 6 4 10
10 10 14 0 10 13 21 25 21 11 0 35 -21 35 -30 0 -3 16 -21 35 -40 19 -19 35
-38 35 -41 0 -4 5 -10 10 -14 6 -4 10 -10 10 -14 0 -3 23 -29 50 -56 45 -44
50 -52 50 -67 0 -10 -2 -18 -5 -18 -3 0 -5 -9 -5 -20 0 -11 2 -20 5 -20 3 0 5
-4 5 -10 0 -5 2 -10 5 -10 3 0 5 -6 5 -13 0 -8 7 -19 20 -32 11 -11 20 -23 20
-27 0 -4 2 -8 5 -8 3 0 5 -4 5 -10 0 -5 2 -10 5 -10 3 0 5 -9 5 -19 0 -13 3
-21 10 -26 6 -4 10 -11 10 -15 0 -4 5 -11 10 -15 6 -4 10 -11 10 -16 0 -5 2
-9 5 -9 3 0 5 -4 5 -9 0 -5 5 -12 10 -16 6 -4 10 -11 10 -16 0 -5 2 -9 5 -9 3
0 5 -3 5 -8 0 -6 71 -82 77 -82 2 0 3 4 3 9 0 5 5 12 10 16 14 10 13 19 -5 35
-11 11 -15 18 -15 32 0 17 -1 18 -18 18 -19 0 -62 36 -62 52 0 5 -2 8 -5 8 -3
0 -5 7 -5 15 0 8 -2 15 -5 15 -3 0 -5 4 -5 8 0 4 -7 14 -15 22 -8 8 -15 18
-15 22 0 4 -2 8 -5 8 -3 0 -5 5 -5 10 0 6 -2 10 -5 10 -3 0 -5 11 -5 24 0 18
-2 26 -10 31 -5 4 -10 11 -10 16 0 5 -2 9 -5 9 -3 0 -5 5 -5 10 0 6 -2 10 -5
10 -3 0 -5 7 -5 15 0 18 23 22 35 5 4 -6 13 -10 21 -10 11 0 14 2 14 10 0 6
-2 10 -5 10 -3 0 -5 5 -5 10 0 6 -2 10 -5 10 -7 0 -6 15 2 23 4 4 13 7 19 7 7
0 15 5 19 10 14 19 55 10 55 -12 0 -4 2 -8 5 -8 3 0 5 -15 5 -34 0 -28 2 -35
10 -41 6 -4 10 -11 10 -16 0 -5 2 -9 5 -9 3 0 5 -7 5 -15 0 -8 2 -15 5 -15 3
0 5 -4 5 -10 0 -5 2 -10 5 -10 3 0 5 -7 5 -15 0 -8 2 -15 5 -15 3 0 5 -6 5
-14 0 -8 4 -17 10 -21 6 -4 10 -13 10 -21 0 -8 2 -14 5 -14 3 0 5 -4 5 -10 0
-5 2 -10 5 -10 3 0 5 -4 5 -10 0 -5 2 -10 5 -10 3 0 5 -4 5 -10 0 -5 2 -10 5
-10 3 0 5 -4 5 -10 0 -5 2 -10 5 -10 3 0 5 -6 5 -13 0 -8 6 -18 15 -27 8 -8
15 -17 15 -21 0 -4 5 -10 10 -14 6 -4 10 -10 10 -14 0 -7 12 -21 17 -21 2 0 3
7 3 15 0 8 -2 15 -5 15 -3 0 -5 4 -5 9 0 5 -4 12 -10 16 -5 4 -10 11 -10 16 0
5 -2 9 -5 9 -3 0 -5 5 -5 10 0 6 -2 10 -5 10 -3 0 -5 5 -5 10 0 6 -2 10 -5 10
-3 0 -5 5 -5 10 0 6 -2 10 -5 10 -3 0 -5 5 -5 10 0 6 -2 10 -5 10 -3 0 -5 5
-5 10 0 6 -2 10 -5 10 -3 0 -5 5 -5 10 0 6 -2 10 -5 10 -3 0 -5 7 -5 15 0 8
-2 15 -5 15 -3 0 -5 5 -5 10 0 6 -2 10 -5 10 -3 0 -5 5 -5 10 0 6 -2 10 -5 10
-3 0 -5 7 -5 15 0 8 -2 15 -5 15 -3 0 -5 5 -5 10 0 6 -2 10 -5 10 -3 0 -5 7
-5 15 0 8 -2 15 -5 15 -3 0 -5 9 -5 20 0 11 -2 20 -5 20 -3 0 -5 5 -5 10 0 6
-2 10 -5 10 -3 0 -5 9 -5 20 0 11 -2 20 -5 20 -3 0 -5 9 -5 20 0 11 -2 20 -5
20 -3 0 -5 11 -5 25 0 14 -2 25 -5 25 -3 0 -5 5 -5 10 0 6 -2 10 -5 10 -3 0
-5 5 -5 10 0 6 -2 10 -5 10 -3 0 -5 7 -5 15 0 8 2 15 5 15 10 0 6 37 -5 45 -5
4 -10 11 -10 16 0 5 -2 9 -5 9 -3 0 -5 4 -5 8 0 5 -5 13 -11 18 -8 7 -9 11 -5
13 3 1 6 6 6 11 0 6 2 10 5 10 3 0 5 13 5 30 0 17 -2 30 -5 30 -3 0 -5 5 -5
10 0 6 2 10 5 10 3 0 5 7 5 15 0 8 -2 15 -5 15 -3 0 -5 15 -5 35 0 20 -2 35
-5 35 -3 0 -5 5 -5 10 0 6 -2 10 -5 10 -3 0 -5 13 -5 30 0 17 -2 30 -5 30 -3
0 -5 5 -5 10 0 6 -2 10 -5 10 -3 0 -5 17 -5 40 0 23 -2 40 -5 40 -3 0 -5 7 -5
15 0 8 -2 15 -5 15 -8 0 -6 45 2 53 9 9 33 -10 33 -25 0 -5 2 -8 5 -8 3 0 5
-4 5 -10 0 -5 2 -10 5 -10 3 0 5 -4 5 -10 0 -5 2 -10 5 -10 3 0 5 -7 5 -15 0
-8 2 -15 5 -15 3 0 5 -4 5 -10 0 -5 2 -10 5 -10 3 0 5 -4 5 -8 0 -10 12 -22
22 -22 4 0 8 -2 8 -5 0 -3 5 -5 10 -5 8 0 10 3 10 20 0 11 -2 20 -5 20 -3 0
-5 17 -5 40 0 23 -2 40 -5 40 -9 0 -6 55 3 64 7 6 9 6 12 1 3 -4 6 -5 8 -3 3
2 2 5 -2 7 -3 1 -6 6 -6 11 0 6 -2 10 -5 10 -3 0 -5 7 -5 15 0 12 2 15 10 15
6 0 10 -2 10 -5 0 -3 4 -5 8 -5 14 0 22 -14 22 -37 0 -13 2 -23 5 -23 3 0 5
-4 5 -10 0 -5 2 -10 5 -10 3 0 5 -4 5 -9 0 -5 5 -12 10 -16 6 -4 10 -11 10
-16 0 -5 2 -9 5 -9 3 0 5 -11 5 -25 0 -14 2 -25 5 -25 3 0 5 -4 5 -10 0 -5 2
-10 5 -10 3 0 5 -4 5 -8 0 -4 9 -16 20 -27 11 -11 20 -22 20 -26 0 -4 5 -10
10 -14 6 -4 10 -11 10 -16 0 -5 2 -9 5 -9 3 0 5 -6 5 -13 0 -12 39 -57 50 -57
12 0 20 -15 20 -35 0 -20 8 -35 20 -35 3 0 12 -7 20 -15 8 -8 17 -15 20 -15 3
0 12 -7 20 -15 15 -16 32 -19 43 -8 8 8 10 73 2 73 -3 0 -5 11 -5 25 0 14 -2
25 -5 25 -3 0 -5 13 -5 28 0 26 -1 29 -21 48 -13 13 -19 21 -15 23 7 2 9 61 1
61 -3 0 -5 7 -5 15 0 8 -2 15 -5 15 -3 0 -5 5 -5 10 0 6 2 10 5 10 9 0 5 28
-5 35 -9 6 -10 13 -10 51 0 26 -2 44 -5 44 -3 0 -5 7 -5 15 0 8 2 15 5 15 3 0
5 11 5 25 0 14 -2 25 -5 25 -3 0 -5 9 -5 20 0 11 2 20 5 20 3 0 5 10 5 23 0
27 8 37 30 37 17 0 30 -10 30 -22 0 -4 2 -8 5 -8 3 0 5 -13 5 -30 0 -17 2 -30
5 -30 3 0 5 -7 5 -15 0 -8 2 -15 5 -15 3 0 5 -7 5 -15 0 -8 2 -15 5 -15 3 0 5
-7 5 -15 0 -8 2 -15 5 -15 3 0 5 -15 5 -35 0 -20 2 -35 5 -35 3 0 5 -4 5 -9 0
-5 5 -12 10 -16 8 -5 10 -13 10 -31 0 -13 2 -24 5 -24 3 0 5 -9 5 -20 0 -11 2
-20 5 -20 3 0 5 -4 5 -10 0 -5 2 -10 5 -10 3 0 5 -10 5 -23 0 -13 3 -26 7 -30
8 -8 23 -9 23 -2 0 3 5 5 10 5 8 0 10 -3 10 -15 0 -10 -2 -15 -8 -15 -4 0 -11
-3 -15 -7 -8 -8 -9 -23 -2 -23 3 0 5 -7 5 -15 0 -8 2 -15 5 -15 3 0 5 -4 5
-10 0 -5 3 -10 6 -12 5 -2 5 -4 0 -6 -19 -9 -7 -47 24 -77 28 -27 38 -45 25
-45 -3 0 -5 -4 -5 -10 0 -5 2 -10 5 -10 3 0 5 -7 5 -15 0 -8 2 -15 5 -15 3 0
5 -4 5 -8 0 -4 7 -14 15 -22 8 -8 15 -17 15 -21 0 -4 5 -10 10 -14 14 -10 12
-29 -5 -45 -21 -20 -17 -50 7 -50 4 0 8 -2 8 -5 0 -3 3 -5 8 -5 12 0 32 -23
32 -37 0 -7 2 -13 5 -13 3 0 5 -4 5 -8 0 -4 7 -14 15 -22 14 -13 15 -17 15
-47 0 -19 2 -33 5 -33 3 0 5 -7 5 -15 0 -8 2 -15 5 -15 3 0 5 -7 5 -15 0 -8 2
-15 5 -15 3 0 5 -3 5 -8 0 -4 10 -17 22 -30 13 -12 26 -22 30 -22 5 0 8 -2 8
-5 0 -3 -7 -5 -15 -5 -10 0 -15 -2 -15 -8 0 -9 12 -22 21 -22 4 0 10 -4 14
-10 4 -5 12 -10 19 -10 14 0 32 -15 22 -19 -13 -4 -6 -27 14 -46 11 -11 20
-22 20 -25 0 -8 34 -40 42 -40 5 0 8 -2 8 -5 0 -3 4 -5 8 -5 4 0 14 -7 22 -15
8 -8 18 -15 22 -15 4 0 8 -2 8 -5 0 -3 5 -5 10 -5 6 0 10 -2 10 -5 0 -3 4 -5
9 -5 5 0 12 -4 16 -10 4 -6 13 -10 21 -10 8 0 14 -2 14 -5 0 -3 5 -5 10 -5 6
0 10 -2 10 -5 0 -3 5 -5 10 -5 6 0 10 -2 10 -5 0 -3 7 -5 15 -5 8 0 15 -2 15
-5 0 -3 9 -5 20 -5 11 0 20 -2 20 -5 0 -3 7 -5 15 -5 8 0 15 -2 15 -5 0 -3 9
-5 20 -5 11 0 20 -2 20 -5 0 -3 26 -5 68 -5 67 0 67 0 102 35 19 19 37 35 40
35 8 0 30 23 30 32 0 5 2 8 5 8 3 0 5 7 5 15 0 8 2 15 5 15 3 0 5 5 5 10 0 6
2 10 5 10 13 0 5 46 -10 60 -15 14 -20 30 -10 30 11 0 5 45 -7 58 -12 12 -38
17 -38 7 0 -3 -4 -5 -10 -5 -5 0 -10 -2 -10 -5 0 -3 -4 -5 -10 -5 -5 0 -10 -2
-10 -5 0 -3 -15 -5 -35 -5 -20 0 -35 2 -35 5 0 3 -7 5 -15 5 -8 0 -15 2 -15 5
0 3 -11 5 -25 5 -14 0 -25 2 -25 5 0 3 -4 5 -10 5 -5 0 -10 2 -10 5 0 3 -4 5
-10 5 -5 0 -10 2 -10 5 0 3 -4 5 -9 5 -5 0 -12 5 -16 10 -4 6 -11 10 -16 10
-5 0 -9 2 -9 5 0 3 -7 5 -15 5 -8 0 -15 2 -15 5 0 3 -3 5 -8 5 -21 0 -42 33
-42 67 0 19 -2 33 -5 33 -3 0 -5 5 -5 10 0 6 -2 10 -5 10 -3 0 -5 4 -5 9 0 5
-4 12 -10 16 -5 4 -10 11 -10 16 0 5 -2 9 -5 9 -3 0 -5 5 -5 10 0 6 -2 10 -5
10 -3 0 -5 5 -5 10 0 6 -2 10 -5 10 -3 0 -5 5 -5 10 0 6 -2 10 -5 10 -3 0 -5
5 -5 10 0 6 -2 10 -5 10 -3 0 -5 5 -5 10 0 6 -2 10 -5 10 -3 0 -5 5 -5 10 0 6
-2 10 -5 10 -3 0 -5 5 -5 10 0 6 -2 10 -5 10 -3 0 -5 5 -5 10 0 6 -2 10 -5 10
-3 0 -5 5 -5 10 0 6 -2 10 -5 10 -3 0 -5 5 -5 10 0 6 -2 10 -5 10 -3 0 -5 5
-5 10 0 6 -2 10 -5 10 -3 0 -5 6 -5 14 0 8 -4 17 -10 21 -5 4 -10 11 -10 16 0
5 -2 9 -5 9 -3 0 -5 9 -5 20 0 11 -2 20 -5 20 -3 0 -5 5 -5 10 0 6 -2 10 -5
10 -3 0 -5 7 -5 15 0 8 -2 15 -5 15 -3 0 -5 7 -5 15 0 8 -2 15 -5 15 -3 0 -5
5 -5 10 0 6 -2 10 -5 10 -3 0 -5 7 -5 15 0 8 -2 15 -5 15 -3 0 -5 7 -5 15 0 8
-2 15 -5 15 -3 0 -5 7 -5 15 0 8 -2 15 -5 15 -3 0 -5 7 -5 15 0 8 -2 15 -5 15
-3 0 -5 7 -5 15 0 8 -2 15 -5 15 -3 0 -5 5 -5 10 0 6 -2 10 -5 10 -3 0 -5 5
-5 10 0 6 -2 10 -5 10 -3 0 -5 5 -5 10 0 6 -2 10 -5 10 -3 0 -5 7 -5 15 0 8
-2 15 -5 15 -3 0 -5 5 -5 10 0 6 -2 10 -5 10 -3 0 -5 9 -5 20 0 11 -2 20 -5
20 -3 0 -5 11 -5 25 0 14 -2 25 -5 25 -3 0 -5 5 -5 10 0 6 -2 10 -5 10 -3 0
-5 6 -5 14 0 8 -4 17 -10 21 -8 5 -10 13 -10 31 0 13 -2 24 -5 24 -3 0 -5 6
-5 13 0 8 -6 18 -15 27 -8 8 -15 18 -15 22 0 4 -2 8 -5 8 -3 0 -5 7 -5 15 0
15 1 15 25 15 14 0 25 -2 25 -5 0 -3 4 -5 8 -5 4 0 11 -3 15 -7 4 -4 7 -11 7
-15 0 -4 2 -8 5 -8 3 0 5 -4 5 -10 0 -5 2 -10 5 -10 3 0 5 -4 5 -9 0 -5 5 -12
10 -16 6 -4 10 -11 10 -16 0 -5 2 -9 5 -9 3 0 5 -4 5 -10 0 -5 2 -10 5 -10 3
0 5 -7 5 -15 0 -8 2 -15 5 -15 3 0 5 -4 5 -10 0 -5 2 -10 5 -10 3 0 5 -4 5
-10 0 -5 2 -10 5 -10 3 0 5 -4 5 -10 0 -5 2 -10 5 -10 3 0 5 -4 5 -9 0 -5 5
-12 10 -16 6 -4 10 -11 10 -15 0 -4 5 -11 10 -15 6 -4 10 -11 10 -15 0 -4 5
-11 10 -15 6 -4 10 -11 10 -16 0 -5 2 -9 5 -9 3 0 5 -4 5 -10 0 -5 2 -10 5
-10 3 0 5 -4 5 -9 0 -5 5 -12 10 -16 6 -4 10 -11 10 -15 0 -4 5 -11 10 -15 6
-4 10 -10 10 -14 0 -4 7 -13 15 -21 8 -8 15 -17 15 -20 0 -3 7 -12 15 -20 8
-8 15 -17 15 -20 0 -3 9 -14 20 -25 11 -11 20 -23 20 -27 0 -4 2 -8 5 -8 3 0
5 -4 5 -9 0 -5 5 -12 10 -16 6 -4 10 -10 10 -14 0 -4 7 -13 15 -21 8 -8 15
-17 15 -20 0 -3 9 -14 20 -25 11 -11 20 -22 20 -25 0 -8 54 -60 62 -60 5 0 8
-2 8 -5 0 -3 4 -5 9 -5 5 0 12 -4 16 -10 4 -5 11 -10 16 -10 5 0 9 -2 9 -5 0
-3 5 -5 10 -5 6 0 10 -2 10 -5 0 -3 5 -5 10 -5 6 0 10 -2 10 -5 0 -3 5 -5 10
-5 6 0 10 -2 10 -5 0 -3 7 -5 15 -5 8 0 15 -2 15 -5 0 -3 9 -5 20 -5 11 0 20
-2 20 -5 0 -3 11 -5 25 -5 14 0 25 2 25 5 0 3 9 5 20 5 11 0 20 2 20 5 0 3 7
5 15 5 8 0 15 2 15 5 0 3 6 5 14 5 8 0 17 4 21 10 4 5 11 10 16 10 5 0 9 2 9
5 0 3 3 5 8 5 9 0 52 42 52 51 0 4 5 10 10 14 9 7 10 13 10 66 0 56 -1 59 -10
59 -5 0 -10 2 -10 5 0 3 -18 5 -45 5 -27 0 -45 -2 -45 -5 0 -3 -23 -5 -60 -5
-37 0 -60 2 -60 5 0 3 -4 5 -9 5 -5 0 -12 5 -16 10 -4 6 -10 10 -14 10 -8 0
-21 12 -21 20 0 3 -9 14 -20 25 -11 11 -20 22 -20 25 0 3 -13 19 -30 35 -16
16 -30 32 -30 35 0 3 -7 12 -15 20 -8 8 -15 18 -15 22 0 4 -2 8 -5 8 -3 0 -5
5 -5 10 0 6 -2 10 -5 10 -3 0 -5 5 -5 10 0 6 -2 10 -5 10 -3 0 -5 6 -5 14 0 8
-4 17 -10 21 -5 4 -10 11 -10 16 0 5 -2 9 -5 9 -3 0 -5 5 -5 10 0 6 -2 10 -5
10 -3 0 -5 5 -5 10 0 6 -2 10 -5 10 -3 0 -5 7 -5 15 0 8 -2 15 -5 15 -3 0 -5
5 -5 10 0 6 -2 10 -5 10 -3 0 -5 5 -5 10 0 6 -2 10 -5 10 -3 0 -5 5 -5 10 0 6
-2 10 -5 10 -3 0 -5 5 -5 10 0 6 -2 10 -5 10 -3 0 -5 5 -5 10 0 6 -2 10 -5 10
-3 0 -5 5 -5 10 0 6 -2 10 -5 10 -3 0 -5 9 -5 20 0 11 -2 20 -5 20 -3 0 -5 5
-5 10 0 6 -2 10 -5 10 -3 0 -5 7 -5 15 0 8 -2 15 -5 15 -3 0 -5 7 -5 15 0 8
-2 15 -5 15 -3 0 -5 7 -5 15 0 8 -2 15 -5 15 -3 0 -5 11 -5 25 0 14 -2 25 -5
25 -3 0 -5 5 -5 10 0 6 -2 10 -5 10 -3 0 -5 7 -5 15 0 8 -2 15 -5 15 -3 0 -5
9 -5 20 0 11 -2 20 -5 20 -3 0 -5 7 -5 15 0 8 -2 15 -5 15 -3 0 -5 5 -5 10 0
6 -2 10 -5 10 -8 0 -6 25 2 33 4 4 12 7 18 7 12 0 55 -41 55 -52 0 -5 2 -8 5
-8 3 0 5 -4 5 -8 0 -4 7 -14 15 -22 8 -8 15 -18 15 -22 0 -4 2 -8 5 -8 3 0 5
-4 5 -10 0 -5 2 -10 5 -10 3 0 5 -3 5 -8 0 -4 18 -25 40 -47 22 -22 40 -42 40
-45 0 -8 33 -40 41 -40 4 0 10 -4 14 -10 4 -5 11 -10 15 -10 4 0 11 -4 15 -10
4 -5 11 -10 16 -10 5 0 9 -2 9 -5 0 -3 5 -5 10 -5 6 0 10 -2 10 -5 0 -3 5 -5
10 -5 6 0 10 -2 10 -5 0 -3 7 -5 15 -5 8 0 15 -2 15 -5 0 -3 20 -5 50 -5 30 0
50 2 50 5 0 3 5 5 10 5 6 0 10 2 10 5 0 3 5 5 10 5 6 0 10 2 10 5 0 3 5 5 10
5 6 0 10 2 10 5 0 3 13 5 28 5 29 0 42 7 42 22 0 4 2 8 5 8 3 0 5 9 5 20 0 11
-2 20 -5 20 -3 0 -5 7 -5 15 0 8 -2 15 -5 15 -9 0 -5 18 5 25 6 4 10 10 10 14
0 8 -32 41 -40 41 -9 0 -40 34 -40 45 0 18 -32 45 -52 45 -10 0 -18 2 -18 5 0
3 -4 5 -10 5 -5 0 -10 2 -10 5 0 3 -4 5 -10 5 -5 0 -10 2 -10 5 0 3 -3 5 -8 5
-4 0 -22 15 -40 32 -17 18 -32 36 -32 40 0 5 -2 8 -5 8 -3 0 -5 11 -5 25 0 14
-2 25 -5 25 -3 0 -5 20 -5 50 0 30 -2 50 -5 50 -3 0 -5 5 -5 10 0 6 -2 10 -5
10 -9 0 -5 18 5 25 8 5 10 13 10 31 0 13 2 24 5 24 3 0 5 11 5 25 0 14 2 25 5
25 3 0 5 7 5 15 0 8 2 15 5 15 3 0 5 11 5 25 0 14 2 25 5 25 3 0 5 5 5 10 0 6
2 10 5 10 3 0 5 11 5 25 0 14 2 25 5 25 3 0 5 4 5 8 0 4 7 14 15 22 15 14 21
40 10 40 -3 0 -5 5 -5 10 0 6 2 10 5 10 3 0 5 17 5 40 0 23 2 40 5 40 3 0 5
48 5 135 0 87 -2 135 -5 135 -3 0 -5 9 -5 20 0 11 2 20 5 20 3 0 5 7 5 15 0 8
-2 15 -5 15 -3 0 -5 5 -5 10 0 6 -2 10 -5 10 -3 0 -5 4 -5 9 0 5 -4 12 -10 16
-5 4 -10 10 -10 14 0 4 -7 13 -15 21 -8 8 -15 17 -15 21 0 4 -4 10 -10 14 -5
4 -10 10 -10 14 0 9 -13 21 -22 21 -4 0 -8 2 -8 5 0 3 -4 5 -10 5 -5 0 -10 2
-10 5 0 3 -4 5 -10 5 -5 0 -10 2 -10 5 0 3 -4 5 -10 5 -5 0 -10 2 -10 5 0 3
-7 5 -15 5 -8 0 -15 2 -15 5 0 3 -7 5 -15 5 -8 0 -15 2 -15 5 0 3 -7 5 -15 5
-8 0 -15 2 -15 5 0 3 -9 5 -20 5 -11 0 -20 2 -20 5 0 3 -9 5 -20 5 -11 0 -20
2 -20 5 0 3 -22 5 -55 5 -33 0 -55 -2 -55 -5 0 -3 -7 -5 -15 -5 -8 0 -15 -2
-15 -5 0 -3 -4 -5 -9 -5 -5 0 -12 -4 -16 -10 -4 -5 -10 -10 -14 -10 -3 0 -25
-19 -49 -42 -40 -41 -42 -44 -42 -65 0 -13 -2 -23 -5 -23 -3 0 -5 -43 -5 -120
0 -77 -2 -120 -5 -120 -3 0 -5 -7 -5 -15 0 -8 2 -15 5 -15 3 0 5 -4 5 -10 0
-5 -2 -10 -5 -10 -3 0 -5 -6 -5 -14 0 -8 -4 -17 -10 -21 -6 -4 -10 -13 -10
-20 0 -7 -4 -16 -10 -20 -8 -6 -10 -13 -10 -44 0 -36 0 -37 -20 -56 -18 -17
-20 -22 -20 -45 0 -25 0 -25 -42 -68 -24 -23 -46 -42 -50 -42 -5 0 -8 -2 -8
-5 0 -3 -4 -5 -9 -5 -5 0 -12 -4 -16 -10 -4 -5 -11 -10 -16 -10 -5 0 -9 -2 -9
-5 0 -3 -4 -5 -10 -5 -5 0 -10 -2 -10 -5 0 -3 -4 -5 -10 -5 -5 0 -10 -2 -10
-5 0 -3 -4 -5 -10 -5 -5 0 -10 -2 -10 -5 0 -3 -4 -5 -10 -5 -5 0 -10 -2 -10
-5 0 -3 -7 -5 -15 -5 -8 0 -15 -2 -15 -5 0 -3 -4 -5 -10 -5 -5 0 -10 -2 -10
-5 0 -3 -7 -5 -15 -5 -8 0 -15 -2 -15 -5 0 -3 -4 -5 -10 -5 -5 0 -10 -2 -10
-5 0 -3 -7 -5 -15 -5 -8 0 -15 -2 -15 -5 0 -3 -7 -5 -15 -5 -8 0 -15 -2 -15
-5 0 -3 -9 -5 -20 -5 -11 0 -20 -2 -20 -5 0 -3 -20 -5 -50 -5 -30 0 -50 2 -50
5 0 3 -20 5 -50 5 -30 0 -50 -2 -50 -5 0 -3 -7 -5 -15 -5 -8 0 -15 2 -15 5 0
3 -9 5 -20 5 -11 0 -20 2 -20 5 0 3 -9 5 -20 5 -11 0 -20 2 -20 5 0 3 -7 5
-15 5 -8 0 -15 2 -15 5 0 3 -4 5 -10 5 -5 0 -10 2 -10 5 0 3 -4 5 -10 5 -5 0
-10 2 -10 5 0 3 -4 5 -10 5 -5 0 -10 2 -10 5 0 3 -4 5 -10 5 -5 0 -10 2 -10 5
0 3 -7 5 -15 5 -8 0 -15 2 -15 5 0 3 -10 5 -23 5 -22 0 -23 1 -90 67 -37 38
-67 70 -67 73 0 3 -16 21 -35 40 -19 19 -35 37 -35 40 0 8 -54 60 -62 60 -5 0
-8 5 -8 13 0 12 -59 77 -70 77 -3 0 -9 3 -13 7 -8 9 10 33 24 33 4 0 10 5 14
10 4 6 11 10 16 10 5 0 9 2 9 5 0 3 5 5 10 5 6 0 10 -2 10 -5 0 -3 9 -5 20 -5
11 0 20 -2 20 -5 0 -3 11 -5 25 -5 14 0 25 -2 25 -5 0 -3 7 -5 15 -5 8 0 15 2
15 5 0 3 11 5 25 5 14 0 25 2 25 5 0 3 11 5 25 5 14 0 25 2 25 5 0 3 5 5 10 5
12 0 13 12 3 23 -4 4 -13 7 -20 7 -7 0 -13 2 -13 5 0 3 -11 5 -25 5 -14 0 -25
2 -25 5 0 7 -29 6 -32 -1 -2 -5 -4 -5 -6 0 -2 3 -7 6 -12 6 -8 0 -10 4 -10 18
0 14 -4 21 -15 32 -8 8 -15 17 -15 22 0 4 -3 8 -6 10 -5 2 -5 4 1 8 6 4 6 6 1
8 -3 2 -6 6 -6 10 0 5 -7 15 -16 22 -15 15 -15 15 0 30 13 11 16 18 16 35 0
37 -24 35 352 35 222 0 338 2 338 5 0 3 17 5 40 5 23 0 40 2 40 5 0 3 15 5 35
5 20 0 35 2 35 5 0 3 11 5 25 5 14 0 25 2 25 5 0 3 11 5 25 5 14 0 25 2 25 5
0 3 13 5 30 5 17 0 30 2 30 5 0 3 8 5 18 5 23 0 36 12 25 23 -8 8 -53 10 -53
2 0 -3 -11 -5 -25 -5 -14 0 -25 -2 -25 -5 0 -3 -22 -5 -55 -5 -33 0 -55 -2
-55 -5 0 -3 -30 -5 -80 -5 -50 0 -80 2 -80 5 0 3 -7 5 -15 5 -8 0 -15 2 -15 5
0 3 -9 5 -20 5 -11 0 -20 2 -20 5 0 3 -11 5 -25 5 -14 0 -25 2 -25 5 0 3 -13
5 -30 5 -17 0 -30 2 -30 5 0 3 -7 5 -15 5 -8 0 -15 -2 -15 -5 0 -3 -15 -5 -35
-5 -20 0 -35 2 -35 5 0 3 -13 5 -28 5 -31 0 -42 7 -42 27 0 11 -2 13 -15 13
-8 0 -15 -2 -15 -5 0 -3 -4 -5 -10 -5 -5 0 -10 2 -10 5 0 3 -33 5 -90 5 -57 0
-90 2 -90 5 0 3 -4 5 -8 5 -17 0 -22 13 -22 57 0 25 2 43 5 43 3 0 5 13 5 30
0 17 2 30 5 30 3 0 5 9 5 20 0 11 2 20 5 20 3 0 5 9 5 20 0 11 -2 20 -5 20 -3
0 -5 5 -5 10 0 6 -2 10 -5 10 -3 0 -5 9 -5 20 0 11 2 20 5 20 3 0 5 11 5 25 0
14 -2 25 -5 25 -3 0 -5 7 -5 15 0 8 -2 15 -5 15 -3 0 -5 7 -5 15 0 8 -2 15 -5
15 -3 0 -5 5 -5 10 0 6 -2 10 -5 10 -3 0 -5 5 -5 10 0 6 -2 10 -5 10 -3 0 -5
5 -5 10 0 6 -2 10 -5 10 -3 0 -5 4 -5 9 0 5 -4 12 -10 16 -5 4 -10 10 -10 14
0 8 -43 51 -50 51 -3 0 -12 7 -20 15 -8 8 -17 15 -21 15 -4 0 -10 5 -14 10 -4
6 -11 10 -16 10 -5 0 -9 2 -9 5 0 3 -4 5 -9 5 -5 0 -12 5 -16 10 -4 6 -11 10
-16 10 -5 0 -9 2 -9 5 0 3 -4 5 -10 5 -5 0 -10 2 -10 5 0 3 -7 5 -15 5 -8 0
-15 2 -15 5 0 3 -9 5 -20 5 -11 0 -20 2 -20 5 0 3 -9 5 -20 5 -11 0 -20 2 -20
5 0 3 -35 5 -95 5 -60 0 -95 -2 -95 -5z m120 -160 c0 -3 9 -5 20 -5 11 0 20
-2 20 -5 0 -3 6 -5 13 -5 13 0 37 -20 37 -31 0 -4 5 -10 10 -14 18 -13 15 -77
-5 -95 -8 -8 -15 -17 -15 -20 0 -8 -23 -30 -31 -30 -4 0 -10 -4 -14 -10 -4 -5
-11 -10 -16 -10 -5 0 -9 -2 -9 -5 0 -3 -18 -5 -43 -5 -42 0 -42 0 -70 27 -15
15 -27 31 -27 35 0 5 -2 8 -5 8 -3 0 -5 9 -5 20 0 11 -2 20 -5 20 -3 0 -5 7
-5 15 0 8 2 15 5 15 3 0 5 9 5 20 0 11 2 20 5 20 3 0 5 3 5 8 0 10 22 32 32
32 5 0 8 2 8 5 0 3 9 5 20 5 11 0 20 2 20 5 0 3 11 5 25 5 14 0 25 -2 25 -5z
m-200 -55 c0 -7 -3 -10 -10 -10 -7 0 -10 3 -10 10 0 7 3 10 10 10 7 0 10 -3
10 -10z m13 -147 c7 -7 7 -9 0 -16 -11 -11 -27 3 -17 15 8 10 8 10 17 1z m-3
-108 c8 -8 17 -15 20 -15 8 0 20 -13 20 -22 0 -4 2 -8 5 -8 3 0 5 -4 5 -10 0
-5 -2 -10 -5 -10 -3 0 -5 2 -5 5 0 3 -4 5 -10 5 -5 0 -10 2 -10 5 0 3 -6 5
-13 5 -14 0 -27 10 -27 22 0 4 -2 8 -5 8 -7 0 -6 14 1 23 9 9 8 9 24 -8z m-80
-190 c0 -3 4 -5 8 -5 4 0 14 -7 22 -15 8 -8 18 -15 22 -15 4 0 8 -2 8 -5 0 -3
3 -5 8 -5 10 0 32 -22 32 -32 0 -6 -5 -8 -15 -8 -8 0 -15 2 -15 5 0 3 -4 5
-10 5 -5 0 -10 2 -10 5 0 3 -4 5 -8 5 -4 0 -14 7 -22 15 -8 8 -17 15 -21 15
-4 0 -10 5 -14 10 -4 6 -11 10 -16 10 -6 0 -9 4 -9 10 0 8 3 10 20 10 11 0 20
-2 20 -5z m650 -75 c0 -7 -3 -10 -10 -10 -7 0 -10 3 -10 10 0 7 3 10 10 10 7
0 10 -3 10 -10z m-410 -25 c0 -3 3 -5 8 -5 9 0 32 -22 32 -30 0 -7 13 -20 20
-20 5 0 30 -22 30 -27 0 -2 -7 -3 -15 -3 -8 0 -15 2 -15 5 0 3 -3 5 -8 5 -9 0
-72 63 -72 72 0 5 4 8 10 8 6 0 10 -2 10 -5z m-111 -68 c7 -7 10 -14 8 -16 -2
-2 -4 -1 -6 3 -1 3 -6 6 -11 6 -7 0 -10 3 -10 10 0 13 6 13 19 -3z m-1409 -37
c0 -7 -3 -10 -10 -10 -7 0 -10 3 -10 10 0 7 3 10 10 10 7 0 10 -3 10 -10z
m1490 5 c0 -3 3 -5 8 -5 7 0 32 -21 32 -27 0 -2 -4 -3 -10 -3 -5 0 -10 2 -10
5 0 3 -4 5 -10 5 -5 0 -10 2 -10 5 0 3 -4 5 -10 5 -7 0 -10 3 -10 10 0 7 3 10
10 10 6 0 10 -2 10 -5z m-130 -30 c9 -9 19 -15 27 -15 7 0 13 -2 13 -5 0 -3 4
-5 8 -5 7 0 22 -11 22 -17 0 -2 -7 -3 -15 -3 -8 0 -15 2 -15 5 0 3 -4 5 -8 5
-4 0 -14 7 -22 15 -8 8 -17 15 -20 15 -6 0 -20 12 -20 17 0 8 18 1 30 -12z
m343 -32 c27 -28 34 -43 19 -43 -10 0 -62 52 -62 62 0 15 15 8 43 -19z m-100
-30 c20 -20 21 -23 7 -23 -5 0 -10 2 -10 5 0 3 -4 5 -8 5 -10 0 -22 12 -22 22
0 13 14 9 33 -9z m251 11 c11 -11 6 -14 -19 -14 -14 0 -25 2 -25 5 0 3 5 5 12
5 7 0 14 2 16 5 4 7 9 6 16 -1z m1626 1 c0 -3 5 -5 10 -5 6 0 10 -2 10 -5 0
-3 5 -5 10 -5 6 0 10 -2 10 -5 0 -3 5 -5 10 -5 6 0 10 -2 10 -5 0 -3 3 -5 8
-5 13 0 52 -43 52 -57 0 -7 2 -13 5 -13 8 0 6 -59 -1 -61 -4 -2 -3 -6 5 -13
17 -15 11 -46 -10 -46 -4 0 -10 -4 -14 -10 -8 -11 -23 -13 -26 -4 -2 4 -10 -2
-23 -15 -16 -17 -24 -21 -38 -21 -10 0 -18 -2 -18 -5 0 -3 -6 -5 -13 -5 -29 0
-37 -18 -37 -82 0 -35 -2 -58 -5 -58 -3 0 -5 -7 -5 -15 0 -8 2 -15 5 -15 3 0
5 -9 5 -20 0 -11 -2 -20 -5 -20 -3 0 -5 -4 -5 -10 0 -5 -2 -10 -5 -10 -3 0 -5
-6 -5 -13 0 -13 -10 -27 -20 -27 -7 0 -20 13 -20 20 0 8 -13 20 -22 20 -5 0
-8 -4 -8 -10 0 -5 2 -10 5 -10 3 0 5 -4 5 -10 0 -5 2 -10 5 -10 3 0 5 -4 5
-10 0 -5 2 -10 5 -10 3 0 5 -4 5 -10 0 -5 2 -10 5 -10 3 0 5 -4 5 -8 0 -9 -12
-22 -20 -22 -9 0 -40 -34 -40 -45 0 -31 -38 -43 -60 -20 -9 9 -19 15 -27 15
-11 0 -13 -2 -13 -15 0 -8 2 -15 5 -15 3 0 5 -7 5 -15 0 -8 2 -15 5 -15 16 0
3 -27 -27 -58 -31 -30 -58 -43 -58 -27 0 8 -25 6 -33 -2 -8 -8 -10 -53 -2 -53
7 0 6 -15 -2 -23 -4 -4 -11 -7 -15 -7 -4 0 -8 -2 -8 -5 0 -3 -4 -5 -10 -5 -5
0 -10 2 -10 5 0 3 -15 5 -35 5 -35 0 -35 0 -35 -20 0 -11 -2 -20 -5 -20 -3 0
-5 -4 -5 -10 0 -7 -3 -10 -10 -10 -5 0 -10 -2 -10 -5 0 -3 -11 -5 -25 -5 -14
0 -25 -2 -25 -5 0 -3 -4 -5 -8 -5 -4 0 -14 -7 -22 -15 -8 -8 -18 -15 -22 -15
-4 0 -8 -2 -8 -5 0 -10 -16 -5 -30 10 -16 17 -22 18 -34 7 -6 -6 -7 -9 -2 -11
3 -1 6 -11 6 -24 0 -31 -25 -57 -55 -57 -18 0 -24 -3 -40 -20 -17 -18 -22 -20
-42 -20 -13 0 -23 -2 -23 -5 0 -3 -7 -5 -15 -5 -8 0 -15 2 -15 5 0 3 -4 5 -10
5 -7 0 -10 -3 -10 -13 0 -16 -11 -27 -27 -27 -7 0 -13 -2 -13 -5 0 -3 -18 -5
-45 -5 -27 0 -45 -2 -45 -5 0 -3 -9 -5 -20 -5 -11 0 -20 -2 -20 -5 0 -3 -20
-5 -50 -5 -53 0 -65 -7 -40 -25 12 -9 14 -37 3 -48 -8 -8 -23 -9 -23 -2 0 3
-4 5 -8 5 -4 0 -16 9 -27 20 -11 11 -23 20 -27 20 -4 0 -8 2 -8 5 0 3 -4 5
-10 5 -5 0 -10 -2 -10 -5 0 -3 -4 -5 -10 -5 -5 0 -10 -2 -10 -5 0 -3 -4 -5
-10 -5 -5 0 -10 2 -10 5 0 3 -4 5 -10 5 -5 0 -10 2 -10 5 0 3 -3 5 -8 5 -7 0
-32 21 -32 27 0 2 5 3 10 3 6 0 10 -2 10 -5 0 -3 5 -5 10 -5 6 0 10 -2 10 -5
0 -3 7 -5 15 -5 8 0 15 2 15 5 0 3 5 5 10 5 8 0 10 3 10 18 0 21 9 32 26 32 7
0 15 5 19 10 4 6 13 10 21 10 8 0 14 2 14 5 0 3 5 5 10 5 6 0 10 2 10 5 0 3 7
5 15 5 8 0 15 2 15 5 0 3 7 5 15 5 8 0 15 2 15 5 0 3 13 5 30 5 17 0 30 2 30
5 0 3 5 5 10 5 6 0 10 -2 10 -5 0 -11 17 -4 35 15 17 18 22 20 42 20 13 0 23
2 23 5 0 3 7 5 15 5 8 0 15 2 15 5 0 3 7 5 15 5 8 0 15 2 15 5 0 3 7 5 15 5 8
0 15 2 15 5 0 3 7 5 15 5 8 0 15 2 15 5 0 3 13 5 30 5 17 0 30 2 30 5 0 3 5 5
10 5 6 0 10 2 10 5 0 3 6 5 13 5 8 0 19 7 32 20 11 11 22 20 26 20 4 0 10 5
14 10 4 6 11 10 16 10 5 0 9 2 9 5 0 3 7 5 15 5 8 0 15 2 15 5 0 3 5 5 10 5 6
0 10 2 10 5 0 3 4 5 9 5 5 0 12 5 16 10 4 6 11 10 15 10 4 0 11 5 15 10 4 6
11 10 16 10 5 0 9 2 9 5 0 3 4 5 8 5 12 0 22 13 22 27 0 7 2 13 5 13 3 0 5 4
5 8 0 9 12 22 21 22 4 0 10 5 14 10 4 6 11 10 16 10 5 0 9 2 9 5 0 3 5 5 10 5
6 0 10 2 10 5 0 3 6 5 13 5 20 0 27 11 27 45 0 35 14 55 37 55 12 0 13 2 13
23 0 22 8 37 20 37 8 0 30 23 30 32 0 5 2 8 5 8 3 0 5 9 5 20 0 18 1 20 13 20
14 0 47 30 47 42 0 5 2 8 5 8 3 0 5 4 5 9 0 5 5 12 10 16 6 4 10 11 10 16 0 5
2 9 5 9 3 0 5 13 5 28 0 27 -7 42 -20 42 -3 0 -11 6 -18 13 -12 11 -12 13 -4
21 6 6 9 7 11 2 1 -3 10 -6 19 -6 40 0 58 51 27 80 -8 8 -15 18 -15 22 0 4 -2
8 -5 8 -3 0 -5 5 -5 10 0 6 -2 10 -5 10 -3 0 -5 6 -5 14 0 8 -4 17 -10 21 -10
7 -14 35 -5 35 3 0 5 4 5 9 0 5 5 12 10 16 6 4 10 11 10 16 0 5 2 9 5 9 3 0 5
3 5 8 0 10 22 32 32 32 5 0 8 2 8 5 0 3 17 5 40 5 23 0 40 -2 40 -5z m-3630
-50 c0 -3 8 -5 18 -5 23 0 32 -10 32 -35 0 -18 3 -24 20 -40 20 -19 20 -20 20
-55 0 -44 12 -60 45 -60 21 0 35 -9 35 -22 0 -6 -5 -8 -20 -8 -11 0 -20 2 -20
5 0 3 -7 5 -15 5 -8 0 -15 2 -15 5 0 10 -26 5 -38 -7 -19 -19 -16 -40 8 -63
21 -20 26 -35 12 -35 -9 0 -32 -22 -32 -31 0 -4 -4 -10 -10 -14 -5 -4 -10 -10
-10 -14 0 -8 32 -41 40 -41 9 0 20 -14 20 -25 0 -7 18 -28 50 -60 28 -27 50
-52 50 -55 0 -7 63 -70 70 -70 3 0 21 -16 40 -35 19 -19 37 -35 40 -35 3 0 12
-7 20 -15 8 -8 17 -15 20 -15 3 0 12 -7 20 -15 8 -8 17 -15 20 -15 8 0 20 -13
20 -22 0 -4 2 -8 5 -8 3 0 5 -6 5 -13 0 -7 3 -16 7 -20 8 -8 23 -9 23 -2 0 3
13 5 30 5 17 0 30 -2 30 -5 0 -3 4 -5 8 -5 20 0 28 -23 12 -35 -14 -10 -13
-15 4 -15 8 0 17 4 21 10 7 10 25 14 25 5 0 -3 3 -5 8 -5 4 0 23 -16 42 -35
30 -30 37 -35 52 -35 10 0 18 -2 18 -5 0 -3 7 -5 15 -5 8 0 15 -2 15 -5 0 -3
18 -5 45 -5 27 0 45 -2 45 -5 0 -3 11 -5 24 -5 18 0 26 -2 31 -10 4 -6 13 -10
21 -10 8 0 14 -2 14 -5 0 -3 9 -5 20 -5 11 0 20 2 20 5 0 3 13 5 30 5 17 0 30
-2 30 -5 0 -3 18 -5 45 -5 27 0 45 2 45 5 0 3 5 5 10 5 6 0 10 -2 10 -5 0 -3
9 -5 20 -5 11 0 20 2 20 5 0 3 5 5 10 5 6 0 10 -2 10 -5 0 -3 7 -5 15 -5 8 0
15 2 15 5 0 3 5 5 10 5 13 0 13 -16 0 -25 -19 -13 -2 -55 22 -55 5 0 8 -2 8
-5 0 -3 4 -5 8 -5 24 0 27 -21 5 -43 -18 -17 -18 -17 -75 -17 -35 0 -58 -2
-58 -5 0 -3 -22 -5 -55 -5 -33 0 -55 -2 -55 -5 0 -3 -15 -5 -35 -5 -20 0 -35
2 -35 5 0 3 -9 5 -20 5 -11 0 -20 2 -20 5 0 3 -7 5 -15 5 -8 0 -15 2 -15 5 0
3 -7 5 -15 5 -8 0 -15 2 -15 5 0 3 -4 5 -10 5 -5 0 -10 2 -10 5 0 3 -4 5 -10
5 -5 0 -10 2 -10 5 0 3 -4 5 -10 5 -5 0 -10 2 -10 5 0 3 -9 5 -20 5 -11 0 -20
2 -20 5 0 3 -9 5 -20 5 -11 0 -20 2 -20 5 0 3 -3 5 -8 5 -10 0 -32 22 -32 32
0 6 -5 8 -15 8 -8 0 -15 2 -15 5 0 3 -11 5 -25 5 -14 0 -25 2 -25 5 0 3 -4 5
-10 5 -5 0 -10 2 -10 5 0 3 -4 5 -8 5 -4 0 -15 7 -23 16 -10 11 -16 14 -18 10
-2 -7 -41 -8 -41 -1 0 3 -4 5 -9 5 -5 0 -12 5 -16 10 -4 6 -11 10 -16 10 -5 0
-9 2 -9 5 0 3 -4 5 -10 5 -5 0 -10 2 -10 5 0 3 -4 5 -10 5 -5 0 -10 2 -10 5 0
3 -9 5 -20 5 -11 0 -20 2 -20 5 0 3 -4 5 -10 5 -5 0 -10 2 -10 5 0 3 -4 5 -8
5 -4 0 -11 3 -15 7 -8 8 -9 23 -2 23 9 0 5 15 -7 28 -7 6 -18 12 -25 12 -7 0
-13 2 -13 5 0 3 -6 5 -13 5 -12 0 -67 49 -67 60 0 8 -13 20 -22 20 -4 0 -8 2
-8 5 0 3 -4 5 -10 5 -5 0 -10 2 -10 5 0 3 -3 5 -8 5 -10 0 -32 22 -32 32 0 5
-2 8 -5 8 -3 0 -5 3 -5 8 0 4 -16 23 -35 42 -32 31 -43 50 -30 50 3 0 5 6 5
13 0 13 -10 27 -20 27 -7 0 -60 53 -60 60 0 3 -7 12 -15 20 -8 8 -15 17 -15
20 0 7 -13 20 -20 20 -3 0 -12 7 -20 15 -8 8 -17 15 -20 15 -3 0 -17 11 -30
25 -13 14 -27 25 -30 25 -8 0 -62 55 -57 59 2 2 4 1 6 -3 1 -3 6 -6 11 -6 6 0
10 -2 10 -5 0 -3 4 -5 9 -5 5 0 12 -4 16 -10 4 -5 11 -10 16 -10 5 0 9 -2 9
-5 0 -3 9 -5 20 -5 11 0 20 2 20 5 0 3 11 5 25 5 19 0 25 2 25 8 0 12 -33 42
-47 42 -7 0 -13 2 -13 5 0 3 -7 5 -15 5 -8 0 -15 2 -15 5 0 3 -3 5 -8 5 -4 0
-17 10 -30 23 -22 22 -22 22 3 47 27 27 30 34 15 45 -5 4 -10 12 -10 19 0 16
41 56 57 56 7 0 13 2 13 5 0 3 5 5 10 5 6 0 10 2 10 5 0 3 4 5 8 5 9 0 22 12
22 20 0 13 13 20 41 20 16 0 29 -2 29 -5z m-190 -15 c0 -8 -3 -10 -15 -10 -17
0 -18 2 -9 13 10 10 24 9 24 -3z m1643 3 c7 -7 7 -9 0 -15 -14 -15 -40 -1 -27
14 8 10 18 10 27 1z m407 -63 c0 -7 -3 -10 -10 -10 -7 0 -10 3 -10 10 0 7 3
10 10 10 7 0 10 -3 10 -10z m-1667 -27 c7 -7 7 -9 0 -15 -14 -15 -40 -1 -27
14 8 10 18 10 27 1z m1355 -25 c12 -13 16 -28 7 -28 -3 0 -5 2 -5 5 0 3 -4 5
-8 5 -14 0 -24 14 -16 22 8 10 7 10 22 -4z m362 7 c0 -3 5 -5 10 -5 7 0 10 -3
10 -10 0 -5 2 -10 5 -10 3 0 5 -2 5 -5 0 -9 -15 -5 -28 7 -12 13 -16 28 -7 28
3 0 5 -2 5 -5z m-1690 -40 c8 -8 17 -15 21 -15 4 0 10 -4 14 -10 4 -5 10 -10
14 -10 14 0 23 -14 14 -22 -11 -11 -17 -10 -33 7 -8 8 -17 15 -20 15 -8 0 -40
33 -40 42 0 13 15 9 30 -7z m1383 -12 c9 -10 9 -23 -1 -23 -14 0 -24 14 -16
22 8 9 8 9 17 1z m247 -13 c0 -8 -3 -10 -15 -10 -17 0 -18 2 -9 13 10 10 24 9
24 -3z m-70 -38 c0 -12 -13 -22 -27 -22 -14 0 -17 11 -7 23 9 9 34 9 34 -1z
m-1520 -87 c0 -17 -11 -20 -23 -8 -12 12 -9 23 8 23 13 0 15 -2 15 -15z m1663
-12 c12 -12 -2 -23 -30 -23 -20 0 -23 1 -23 10 0 8 3 10 20 10 11 0 20 2 20 5
0 7 5 6 13 -2z m-1725 -25 c15 -15 16 -28 2 -28 -5 0 -10 2 -10 5 0 3 -4 5
-10 5 -5 0 -10 2 -10 5 0 3 -4 5 -10 5 -7 0 -10 3 -10 10 0 15 32 14 48 -2z
m1345 -45 c10 -10 9 -17 -5 -31 -18 -18 -38 -11 -38 13 0 22 27 33 43 18z
m1840 -10 c7 -7 7 -9 0 -16 -11 -11 -27 3 -17 15 8 10 8 10 17 1z m-3663 -8
c0 -3 6 -5 13 -5 14 0 27 -10 27 -22 0 -6 -5 -8 -20 -8 -11 0 -20 2 -20 5 0 3
-3 5 -8 5 -7 0 -32 21 -32 27 0 2 9 3 20 3 11 0 20 -2 20 -5z m413 -22 c10
-11 9 -13 -8 -13 -12 0 -15 2 -15 10 0 12 12 13 23 3z m27 -18 c0 -3 5 -5 10
-5 7 0 10 -3 10 -10 0 -13 -6 -13 -19 3 -12 13 -13 17 -6 17 3 0 5 -2 5 -5z
m133 -2 c10 -11 9 -13 -8 -13 -12 0 -15 2 -15 10 0 12 12 13 23 3z m1377 -73
c0 -8 -3 -10 -15 -10 -12 0 -15 2 -15 10 0 8 3 10 15 10 12 0 15 -2 15 -10z
m80 -85 c0 -3 4 -5 8 -5 12 0 22 -13 22 -27 0 -10 -3 -13 -10 -13 -5 0 -10 2
-10 5 0 3 -4 5 -8 5 -12 0 -22 13 -22 27 0 10 3 13 10 13 6 0 10 -2 10 -5z
m1838 -27 c6 -7 12 -15 12 -18 0 -3 7 -12 15 -20 17 -16 18 -20 7 -20 -14 0
-63 54 -56 62 8 10 7 10 22 -4z m-1698 -8 c0 -8 -3 -10 -15 -10 -12 0 -15 2
-15 10 0 8 3 10 15 10 12 0 15 -2 15 -10z m-270 -3 c0 -1 -6 -8 -13 -15 -14
-15 -35 -5 -21 10 6 7 34 11 34 5z m800 0 c0 -7 -16 -17 -27 -17 -10 0 -13 3
-13 10 0 8 3 10 20 10 11 0 20 -1 20 -3z m-597 -24 c11 -12 9 -23 -6 -23 -18
0 -30 12 -21 22 8 10 18 10 27 1z m-273 -36 c0 -1 -6 -8 -12 -15 -15 -15 -28
-16 -28 -2 0 7 3 10 10 10 6 0 10 2 10 5 0 3 5 5 10 5 6 0 10 -1 10 -3z m310
-12 c8 -8 17 -15 20 -15 3 0 12 -7 20 -15 8 -8 17 -15 20 -15 14 0 41 -35 33
-43 -7 -7 -10 -5 -33 18 -13 14 -28 25 -32 25 -4 0 -8 2 -8 5 0 3 -3 5 -8 5
-4 0 -15 8 -25 17 -9 10 -17 21 -17 25 0 13 15 9 30 -7z m460 5 c0 -7 -3 -10
-10 -10 -7 0 -10 3 -10 10 0 7 3 10 10 10 7 0 10 -3 10 -10z m-307 -17 c7 -7
5 -10 -10 -26 -26 -26 -47 -7 -22 20 13 14 22 16 32 6z m-2303 -13 c0 -8 -3
-10 -15 -10 -12 0 -15 2 -15 10 0 8 3 10 15 10 12 0 15 -2 15 -10z m3068 -3
c11 -11 12 -13 5 -20 -14 -14 -33 -3 -33 20 0 17 12 17 28 0z m-1038 -17 c0
-7 -3 -10 -10 -10 -5 0 -10 -2 -10 -5 0 -3 -4 -5 -10 -5 -5 0 -10 -2 -10 -5 0
-3 -7 -5 -15 -5 -12 0 -15 2 -15 10 0 8 3 10 15 10 8 0 15 2 15 5 0 3 5 5 10
5 6 0 10 2 10 5 0 3 5 5 10 5 7 0 10 -3 10 -10z m-710 -30 c0 -7 -3 -10 -10
-10 -5 0 -10 -2 -10 -5 0 -3 -7 -5 -15 -5 -8 0 -15 -2 -15 -5 0 -3 -4 -5 -10
-5 -5 0 -10 -2 -10 -5 0 -3 -4 -5 -10 -5 -5 0 -10 -2 -10 -5 0 -3 -4 -5 -10
-5 -5 0 -10 1 -10 3 0 5 25 27 31 27 4 0 10 5 14 10 4 6 11 10 16 10 5 0 9 2
9 5 0 3 9 5 20 5 17 0 20 -2 20 -10z m200 0 c0 -7 -3 -10 -10 -10 -7 0 -10 3
-10 10 0 7 3 10 10 10 7 0 10 -3 10 -10z m180 -23 c0 -16 -11 -27 -27 -27 -16
0 -17 11 -2 27 16 17 29 17 29 0z m123 -4 c4 -4 7 -10 7 -13 0 -8 13 -20 22
-20 5 0 8 -4 8 -10 0 -7 3 -10 10 -10 7 0 10 -3 10 -10 0 -7 -3 -10 -10 -10
-5 0 -10 -2 -10 -5 0 -7 -15 -6 -23 2 -4 4 -7 11 -7 15 0 5 -4 8 -13 8 -12 0
-37 20 -37 30 0 18 31 35 43 23z m227 -13 c0 -8 -3 -10 -15 -10 -17 0 -18 2
-9 13 10 10 24 9 24 -3z m263 2 c7 -7 7 -8 -2 -17 -6 -5 -11 -12 -11 -17 0 -6
-4 -8 -15 -8 -8 0 -15 2 -15 5 0 3 -4 5 -10 5 -6 0 -10 3 -10 8 0 13 13 22 32
22 10 0 18 2 18 5 0 7 5 6 13 -3z m427 -7 c8 -8 19 -15 25 -15 13 0 25 -11 25
-22 0 -13 -15 -9 -30 7 -8 8 -17 15 -20 15 -8 0 -20 13 -20 22 0 11 4 10 20
-7z m-2690 -5 c0 -8 -3 -10 -15 -10 -8 0 -15 -2 -15 -5 0 -3 -9 -5 -20 -5 -11
0 -20 -2 -20 -5 0 -3 -7 -5 -15 -5 -12 0 -15 2 -15 10 0 8 3 10 20 10 11 0 20
2 20 5 0 3 9 5 20 5 11 0 20 2 20 5 0 3 5 5 10 5 7 0 10 -3 10 -10z m1530 5
c0 -3 3 -5 8 -5 8 0 42 -32 42 -40 0 -12 -15 -20 -37 -20 -13 0 -23 2 -23 5 0
3 -4 5 -8 5 -14 0 -22 14 -22 37 0 23 0 23 20 23 11 0 20 -2 20 -5z m400 -25
c0 -8 -3 -10 -15 -10 -12 0 -15 2 -15 10 0 8 3 10 15 10 12 0 15 -2 15 -10z
m-940 -5 c0 -3 5 -5 10 -5 6 0 10 -2 10 -5 0 -3 15 -5 35 -5 20 0 35 2 35 5 0
3 5 5 10 5 6 0 10 2 10 5 0 8 25 6 33 -2 7 -7 5 -10 -10 -25 -17 -18 -18 -18
-60 -18 -25 0 -43 2 -43 5 0 3 -3 5 -8 5 -4 0 -13 6 -20 12 -12 13 -16 28 -7
28 3 0 5 -2 5 -5z m2130 -5 c0 -7 -3 -10 -10 -10 -7 0 -10 3 -10 10 0 7 3 10
10 10 7 0 10 -3 10 -10z m-1040 -10 c0 -8 -3 -10 -15 -10 -8 0 -15 -2 -15 -5
0 -3 -4 -5 -10 -5 -11 0 -13 12 -4 23 10 11 44 9 44 -3z m920 0 c0 -7 -3 -10
-10 -10 -7 0 -10 3 -10 10 0 7 3 10 10 10 7 0 10 -3 10 -10z m-1327 -7 c7 -7
7 -9 0 -16 -9 -9 -23 0 -23 15 0 10 13 10 23 1z m630 -20 c4 -4 7 -10 7 -13 0
-18 -30 -26 -43 -12 -9 8 0 22 15 22 4 0 8 2 8 5 0 7 4 6 13 -2z m-443 -8 c0
-3 5 -5 10 -5 6 0 10 -2 10 -5 0 -3 -9 -5 -20 -5 -17 0 -20 2 -20 10 0 7 3 10
10 10 6 0 10 -2 10 -5z m2140 -5 c0 -7 -3 -10 -10 -10 -7 0 -10 3 -10 10 0 7
3 10 10 10 7 0 10 -3 10 -10z m-4110 -10 c0 -7 -3 -10 -10 -10 -7 0 -10 3 -10
10 0 7 3 10 10 10 7 0 10 -3 10 -10z m2270 -20 c0 -8 -3 -10 -15 -10 -12 0
-15 2 -15 10 0 8 3 10 15 10 12 0 15 -2 15 -10z m-110 -15 c0 -3 5 -5 10 -5 6
0 10 2 10 5 0 3 5 5 10 5 7 0 10 -3 10 -10 0 -8 -3 -10 -15 -10 -8 0 -15 -2
-15 -5 0 -8 -25 -6 -33 2 -6 7 -6 9 -1 15 7 9 24 11 24 3z m430 -5 c0 -7 -3
-10 -10 -10 -7 0 -10 3 -10 10 0 7 3 10 10 10 7 0 10 -3 10 -10z m-517 -7 c7
-7 7 -9 0 -16 -11 -11 -27 3 -17 15 8 10 8 10 17 1z m267 -3 c0 -6 -3 -10 -8
-10 -5 0 -13 -5 -18 -11 -5 -6 -10 -9 -12 -8 -3 3 28 39 34 39 2 0 4 -4 4 -10z
m168 -32 c12 -13 22 -26 22 -30 0 -11 -17 -10 -25 2 -4 6 -10 10 -14 10 -13 0
-32 24 -25 32 10 12 18 9 42 -14z m-2315 5 c7 -7 7 -9 0 -15 -12 -13 -23 -10
-23 7 0 17 11 20 23 8z m1677 -21 c0 -10 -12 -22 -22 -22 -10 0 -10 13 -2 23
9 9 24 9 24 -1z m403 1 c8 -9 -20 -43 -35 -43 -5 0 -8 -2 -8 -5 0 -8 -15 -6
-23 2 -9 9 10 33 25 33 5 0 8 2 8 5 0 3 5 5 10 5 6 0 10 2 10 5 0 7 4 6 13 -2z
m-263 -6 c0 -8 -16 -17 -32 -17 -15 0 -18 2 -18 10 0 9 3 10 25 10 14 0 25 -1
25 -3z m123 -4 c9 -9 0 -23 -15 -23 -4 0 -8 -2 -8 -5 0 -3 -4 -5 -10 -5 -5 0
-10 -2 -10 -5 0 -3 -4 -5 -9 -5 -5 0 -12 -4 -16 -10 -9 -12 -25 -13 -25 -2 0
4 3 11 7 15 4 4 11 7 15 7 4 0 8 2 8 5 0 3 4 5 9 5 5 0 14 7 21 15 14 17 22
18 33 8z m-183 -16 c0 -1 -6 -8 -12 -15 -16 -15 -38 -16 -38 -2 0 8 3 10 15
10 8 0 15 2 15 5 0 3 5 5 10 5 6 0 10 -1 10 -3z m618 -19 c6 -7 12 -16 12 -20
0 -5 4 -8 8 -8 4 0 11 -3 15 -7 9 -10 9 -23 -1 -23 -4 0 -11 3 -15 7 -4 4 -7
11 -7 15 0 4 -4 8 -8 8 -12 0 -22 13 -22 27 0 16 2 16 18 1z m112 2 c0 -8 -3
-10 -15 -10 -12 0 -15 2 -15 10 0 8 3 10 15 10 12 0 15 -2 15 -10z m1393 3 c7
-7 7 -9 0 -15 -16 -17 -32 -3 -17 15 8 8 8 8 17 0z m-2053 -51 c0 -10 -22 -32
-32 -32 -5 0 -8 -2 -8 -5 0 -3 -4 -5 -10 -5 -5 0 -10 -2 -10 -5 0 -8 -25 -6
-33 3 -9 8 0 22 14 22 4 0 10 5 14 10 4 6 13 10 21 10 8 0 14 2 14 5 0 3 7 5
15 5 10 0 15 -2 15 -8z m-130 -12 c0 -7 -3 -10 -10 -10 -7 0 -10 3 -10 10 0 7
3 10 10 10 7 0 10 -3 10 -10z m240 -3 c0 -24 -29 -44 -43 -29 -9 8 0 22 14 22
4 0 10 5 14 10 10 14 15 13 15 -3z m-482 -29 c25 -25 5 -58 -35 -58 -13 0 -23
-3 -24 -6 -2 -5 -5 -4 -11 2 -11 11 -10 20 2 29 6 4 10 10 10 14 0 11 13 21
27 21 7 0 13 2 13 5 0 8 4 6 18 -7z m152 -6 c0 -7 -11 -22 -17 -22 -5 0 -3 15
3 23 9 9 14 9 14 -1z m100 -20 c0 -10 -22 -32 -32 -32 -5 0 -8 -2 -8 -5 0 -3
-7 -5 -15 -5 -8 0 -15 1 -15 3 0 5 25 27 31 27 4 0 10 5 14 10 9 12 25 13 25
2z m163 1 c9 -9 0 -23 -15 -23 -4 0 -8 -2 -8 -5 0 -3 -9 -5 -20 -5 -17 0 -20
2 -20 10 0 7 3 10 10 10 6 0 10 2 10 5 0 3 5 5 10 5 6 0 10 2 10 5 0 8 15 6
23 -2z m340 0 c14 -14 2 -33 -20 -33 -11 0 -13 2 -13 13 0 23 18 34 33 20z
m920 -40 c7 -7 7 -9 0 -16 -11 -11 -27 3 -17 15 8 10 8 10 17 1z m-2360 -40
c7 -7 6 -9 -5 -21 -19 -18 -39 1 -22 21 8 9 18 9 27 0z m967 -23 c0 -8 -3 -10
-15 -10 -17 0 -18 2 -9 13 10 10 24 9 24 -3z m-1020 -28 c0 -10 -12 -22 -22
-22 -10 0 -10 13 -2 23 9 9 24 9 24 -1z m2525 -22 c16 -16 33 -30 37 -30 5 0
8 -2 8 -5 0 -3 4 -5 8 -5 16 0 24 -14 14 -24 -6 -6 -9 -7 -11 -2 -1 3 -5 6 -9
6 -4 0 -23 16 -42 35 -19 19 -38 35 -42 35 -5 0 -8 4 -8 10 0 17 15 11 45 -20z
m355 27 c0 -6 -15 -17 -22 -17 -10 0 -10 3 -2 13 6 6 24 10 24 4z m-737 -44
c7 -7 7 -9 0 -15 -16 -17 -32 -3 -17 15 8 8 8 8 17 0z m-2523 -18 c0 -3 7 -5
15 -5 13 0 15 -2 15 -15 0 -15 0 -15 -28 -15 -36 0 -52 14 -36 33 7 8 34 10
34 2z m2303 -12 c10 -10 -1 -23 -20 -23 -16 0 -16 2 -2 17 14 15 13 15 22 6z
m887 4 c0 -6 -15 -17 -22 -17 -10 0 -10 3 -2 13 6 6 24 10 24 4z m-2127 -24
c10 -10 -1 -23 -20 -23 -7 0 -13 -2 -13 -5 0 -8 -15 -6 -23 3 -10 9 1 22 20
22 7 0 13 2 13 5 0 8 15 6 23 -2z m-363 -23 c0 -7 -3 -10 -10 -10 -7 0 -10 3
-10 10 0 7 3 10 10 10 7 0 10 -3 10 -10z m1790 -35 c0 -3 5 -5 10 -5 6 0 10
-2 10 -5 0 -3 6 -5 13 -5 24 0 36 -27 20 -43 -7 -7 -11 -4 -35 20 -26 26 -35
43 -23 43 3 0 5 -2 5 -5z m938 -8 c11 -11 12 -13 5 -20 -11 -11 -37 14 -27 25
8 10 7 10 22 -5z m-3015 -4 c9 -9 0 -23 -15 -23 -4 0 -8 -2 -8 -5 0 -8 -15 -6
-23 2 -7 7 -6 9 4 20 13 14 31 16 42 6z m1087 -1 c0 -9 -12 -22 -20 -22 -12 0
-21 14 -14 22 9 10 34 10 34 0z m-1820 -77 c0 -3 9 -5 20 -5 17 0 20 -2 20
-10 0 -12 -31 -14 -43 -3 -8 8 -9 23 -2 23 3 0 5 -2 5 -5z m3793 -2 c7 -7 7
-9 0 -16 -9 -9 -23 0 -23 15 0 10 13 10 23 1z m-2363 -11 c0 -9 -12 -22 -20
-22 -3 0 -12 -7 -20 -15 -13 -14 -16 -15 -22 -8 -13 13 -4 33 14 33 4 0 8 2 8
5 0 3 5 5 10 5 6 0 10 2 10 5 0 3 5 5 10 5 6 0 10 -3 10 -8z m520 -12 c0 -9
-3 -10 -40 -10 -37 0 -40 1 -40 10 0 9 3 10 40 10 37 0 40 -1 40 -10z m510 2
c0 -11 -13 -22 -26 -22 -7 0 -15 -4 -19 -10 -4 -5 -10 -10 -14 -10 -4 0 -15
-9 -26 -20 -11 -11 -22 -20 -25 -20 -3 0 -17 -11 -30 -25 -26 -27 -30 -29 -30
-17 0 9 22 32 30 32 3 0 14 9 25 20 11 11 22 20 26 20 4 0 10 5 14 10 4 6 11
10 15 10 4 0 15 9 25 20 18 20 35 26 35 12z m660 3 c0 -3 5 -5 10 -5 6 0 10
-2 10 -5 0 -3 5 -5 10 -5 7 0 10 -3 10 -10 0 -7 -3 -10 -10 -10 -5 0 -10 2
-10 5 0 3 -4 5 -8 5 -4 0 -11 3 -15 7 -8 8 -9 23 -2 23 3 0 5 -2 5 -5z m-1017
-22 c7 -7 7 -9 0 -16 -9 -9 -23 0 -23 15 0 10 13 10 23 1z m711 -19 c10 -10 7
-14 -9 -14 -8 0 -15 2 -15 4 0 5 11 16 15 16 2 0 6 -3 9 -6z m529 -11 c4 -4 7
-12 7 -18 0 -11 11 -25 20 -25 13 0 31 -25 23 -33 -11 -11 -17 -9 -38 13 -11
11 -22 20 -25 20 -7 0 -30 23 -30 30 0 18 29 26 43 13z m-2683 -13 c0 -8 -3
-10 -20 -10 -17 0 -20 2 -20 10 0 8 3 10 20 10 17 0 20 -2 20 -10z m950 0 c0
-9 -3 -10 -24 -10 -18 0 -26 -2 -31 -10 -4 -5 -13 -10 -19 -10 -7 0 -18 -6
-26 -15 -15 -16 -30 -20 -30 -7 0 10 22 32 32 32 5 0 8 2 8 5 0 3 7 5 15 5 8
0 15 2 15 5 0 3 5 5 10 5 6 0 10 2 10 5 0 3 9 5 20 5 17 0 20 -2 20 -10z
m1608 -2 c15 -16 15 -18 -1 -18 -18 0 -30 12 -21 22 8 10 7 10 22 -4z m-265
-75 c7 -7 6 -9 -5 -20 -18 -19 -48 -14 -48 7 0 18 38 27 53 13z m-2263 -11 c0
-15 -14 -22 -40 -22 -26 0 -40 7 -40 22 0 7 7 8 40 8 33 0 40 -1 40 -8z m900
0 c0 -11 -23 -32 -35 -32 -11 0 -35 -21 -35 -30 0 -11 -15 -20 -32 -20 -17 0
-18 1 -18 15 0 12 2 15 10 15 6 0 10 2 10 5 0 3 4 5 8 5 4 0 14 7 22 15 8 8
17 15 21 15 4 0 10 5 14 10 9 12 35 14 35 2z m2200 -2 c0 -8 -3 -10 -20 -10
-17 0 -20 2 -20 10 0 8 3 10 20 10 17 0 20 -2 20 -10z m-3240 -8 c0 -14 -14
-22 -37 -22 -20 0 -23 1 -23 10 0 7 3 10 10 10 6 0 10 2 10 5 0 3 9 5 20 5 15
0 20 -2 20 -8z m2763 1 c9 -9 9 -17 0 -26 -9 -9 -33 10 -33 25 0 10 23 11 33
1z m-3403 -11 c0 -4 -6 -13 -12 -20 -14 -14 -38 -16 -38 -4 0 10 12 22 22 22
4 0 8 2 8 5 0 3 5 5 10 5 6 0 10 -3 10 -8z m4010 5 c0 -5 -14 -17 -20 -17 -6
0 -20 12 -20 17 0 2 9 3 20 3 11 0 20 -1 20 -3z m-2290 -35 c0 -13 -13 -22
-32 -22 -10 0 -18 1 -18 3 0 7 16 17 27 17 7 0 13 2 13 5 0 3 2 5 5 5 3 0 5
-4 5 -8z m-60 -30 c0 -4 -3 -11 -7 -15 -11 -11 -27 4 -17 15 9 10 24 10 24 0z
m-1110 -10 c0 -10 -12 -22 -22 -22 -10 0 -10 13 -2 23 9 9 24 9 24 -1z m2963
1 c11 -11 8 -27 -5 -41 -13 -12 -13 -12 -25 0 -14 14 -17 29 -7 41 8 9 28 9
37 0z m-1593 -18 c0 -17 -11 -20 -23 -8 -6 7 -6 9 -1 15 12 13 24 10 24 -7z
m410 -20 c0 -3 4 -5 8 -5 4 0 11 -3 15 -7 8 -8 9 -23 2 -23 -3 0 -5 2 -5 5 0
3 -4 5 -8 5 -4 0 -11 3 -15 7 -8 8 -9 23 -2 23 3 0 5 -2 5 -5z m-810 -18 c0
-18 -11 -27 -35 -27 -24 0 -35 9 -35 27 0 13 1 13 35 13 34 0 35 0 35 -13z
m-1570 -2 c0 -3 7 -5 15 -5 12 0 15 -2 15 -10 0 -9 -3 -10 -23 -10 -27 0 -41
10 -31 22 7 9 24 11 24 3z m1750 0 c0 -3 5 -5 10 -5 6 0 10 -1 10 -3 0 -6 -15
-17 -22 -17 -4 0 -8 -2 -8 -5 0 -8 -35 -6 -43 2 -17 17 -3 33 29 33 13 0 24
-2 24 -5z m133 -2 c12 -12 3 -33 -13 -33 -16 0 -21 15 -9 27 14 15 13 15 22 6z
m-1163 -11 c0 -10 -12 -22 -22 -22 -4 0 -8 -2 -8 -5 0 -7 -15 -6 -23 2 -17 17
-3 33 29 33 19 0 24 -2 24 -8z m2883 1 c10 -11 9 -13 -8 -13 -12 0 -15 2 -15
10 0 12 12 13 23 3z m-2240 -30 c7 -7 7 -9 0 -15 -10 -11 -33 -10 -33 0 0 19
20 28 33 15z m115 -5 c17 -17 16 -28 -3 -28 -8 0 -15 2 -15 5 0 3 -7 5 -15 5
-12 0 -15 2 -15 10 0 7 3 10 10 10 6 0 10 2 10 5 0 9 15 5 28 -7z m352 -6 c0
-19 -29 -29 -43 -15 -11 11 1 23 24 23 14 0 19 -2 19 -8z m-187 -19 c9 -9 9
-27 0 -36 -16 -16 -32 19 -17 36 8 8 8 8 17 0z m-1053 -8 c0 -3 6 -5 13 -5 14
0 37 -20 37 -32 0 -6 -5 -8 -20 -8 -11 0 -20 2 -20 5 0 3 -4 5 -8 5 -17 0 -27
20 -16 33 8 8 14 9 14 2z m-707 -12 c11 -12 9 -23 -6 -23 -14 0 -27 10 -27 22
0 10 23 11 33 1z m-163 -11 c0 -12 -13 -22 -27 -22 -16 0 -16 2 -2 17 13 14
29 17 29 5z m270 -2 c0 -7 -3 -10 -10 -10 -7 0 -10 3 -10 10 0 7 3 10 10 10 7
0 10 -3 10 -10z m3615 -10 c4 -5 10 -10 14 -10 6 0 61 -52 61 -57 0 -10 -28
-1 -40 12 -8 8 -18 15 -22 15 -4 0 -8 2 -8 5 0 3 -6 5 -13 5 -14 0 -37 20 -37
32 0 12 36 11 45 -2z m-1902 -7 c15 -15 2 -33 -23 -33 -25 0 -33 12 -19 27 13
14 31 16 42 6z m850 0 c7 -7 7 -9 0 -16 -11 -11 -27 3 -17 15 8 10 8 10 17 1z
m-2503 -26 c0 -6 -15 -17 -22 -17 -10 0 -10 3 -2 13 6 6 24 10 24 4z m-40 -27
c0 -7 -3 -10 -10 -10 -5 0 -10 -2 -10 -5 0 -3 -4 -5 -10 -5 -5 0 -10 -2 -10
-5 0 -3 -4 -5 -10 -5 -7 0 -10 3 -10 10 0 7 3 10 10 10 6 0 10 2 10 5 0 3 5 5
10 5 6 0 10 2 10 5 0 3 5 5 10 5 7 0 10 -3 10 -10z m1410 -10 c0 -8 -3 -10
-20 -10 -17 0 -20 2 -20 10 0 8 3 10 20 10 17 0 20 -2 20 -10z m110 -15 c0
-17 -11 -20 -23 -8 -6 7 -6 9 -1 15 12 13 24 10 24 -7z m-970 0 c0 -3 3 -5 8
-5 10 0 32 -22 32 -32 0 -11 -16 -10 -25 2 -4 6 -10 10 -14 10 -9 0 -21 13
-21 22 0 5 4 8 10 8 6 0 10 -2 10 -5z m3000 -10 c8 -8 17 -15 20 -15 13 0 21
-14 13 -22 -19 -20 -53 3 -53 34 0 22 2 22 20 3z m-907 -12 c18 -18 2 -33 -35
-33 -30 0 -36 7 -21 23 4 4 11 7 15 7 4 0 8 2 8 5 0 8 25 6 33 -2z m-850 -10
c10 -11 9 -13 -8 -13 -12 0 -15 2 -15 10 0 12 12 13 23 3z m-75 -35 c20 -20
11 -38 -18 -38 -29 0 -37 18 -19 37 15 16 22 16 37 1z m1785 -5 c9 -10 9 -23
-1 -23 -4 0 -11 3 -15 7 -4 4 -7 11 -7 15 0 10 13 10 23 1z m127 -8 c0 -3 5
-5 10 -5 12 0 13 -12 3 -23 -8 -8 -23 -9 -23 -2 0 3 -4 5 -8 5 -14 0 -24 14
-16 22 7 9 34 11 34 3z m-2277 -42 c9 -9 0 -23 -15 -23 -4 0 -8 -2 -8 -5 0 -8
-35 -6 -43 3 -12 11 2 22 30 22 13 0 23 2 23 5 0 7 5 6 13 -2z m517 2 c0 -3 7
-5 15 -5 8 0 15 2 15 5 0 7 15 6 23 -2 17 -17 2 -33 -30 -33 -13 0 -23 2 -23
5 0 3 -4 5 -8 5 -14 0 -24 14 -16 22 7 9 24 11 24 3z m1710 -40 c25 -25 47
-45 50 -45 3 0 14 -9 25 -20 11 -11 22 -20 25 -20 3 0 12 -7 20 -15 8 -8 17
-15 20 -15 7 0 30 -23 30 -30 0 -9 -16 -23 -19 -16 -1 3 -5 6 -9 6 -4 0 -45
38 -92 85 -47 47 -87 85 -90 85 -8 0 -20 13 -20 22 0 17 17 6 60 -37z m213
-82 c11 -11 9 -13 -13 -13 -17 0 -20 2 -20 10 0 12 22 14 33 3z m-1870 -30 c4
-4 7 -12 7 -18 0 -6 -3 -14 -7 -18 -13 -13 -43 -4 -43 13 0 18 31 35 43 23z
m1677 -13 c0 -8 -3 -10 -15 -10 -12 0 -15 2 -15 10 0 8 3 10 15 10 12 0 15 -2
15 -10z m-1610 -50 c0 -7 -3 -10 -10 -10 -7 0 -10 3 -10 10 0 7 3 10 10 10 7
0 10 -3 10 -10z m133 3 c17 -17 -4 -53 -30 -53 -7 0 -13 -2 -13 -5 0 -3 -7 -5
-15 -5 -8 0 -15 -2 -15 -5 0 -3 -7 -5 -15 -5 -10 0 -15 2 -15 8 0 9 22 32 31
32 4 0 10 5 14 10 4 6 11 10 15 10 4 0 11 5 15 10 8 12 18 13 28 3z m1680 -20
c9 -10 17 -21 17 -25 0 -5 4 -8 10 -8 6 0 10 -2 10 -5 0 -3 10 -5 23 -5 22 0
57 -24 57 -40 0 -24 -76 -30 -98 -8 -12 13 -16 28 -7 28 8 0 6 25 -2 33 -4 4
-12 7 -18 7 -12 0 -35 21 -35 32 0 15 24 9 43 -9z m-1973 -1 c0 -13 -23 -32
-40 -32 -21 0 -34 12 -23 23 8 8 23 10 23 2 0 -9 18 -5 25 5 9 12 15 13 15 2z
m1830 -2 c0 -7 -3 -10 -10 -10 -7 0 -10 3 -10 10 0 7 3 10 10 10 7 0 10 -3 10
-10z m55 -50 c4 -5 11 -10 16 -10 6 0 9 -4 9 -10 0 -8 -3 -10 -18 -10 -27 0
-40 17 -26 33 9 9 11 9 19 -3z m-1892 -47 c13 -14 10 -86 -5 -101 -20 -19 -48
-17 -71 6 -18 18 -18 18 -7 27 10 9 14 25 5 25 -8 0 -6 25 2 33 4 4 11 7 15 7
4 0 8 2 8 5 0 8 45 6 53 -2z m97 2 c0 -3 4 -5 8 -5 15 0 24 -14 15 -23 -7 -7
-9 -6 -20 5 -13 13 -17 28 -8 28 3 0 5 -2 5 -5z m2010 -29 c0 -11 -15 -17 -22
-11 -12 10 -9 15 7 15 8 0 15 -2 15 -4z m-1920 -36 c0 -7 -3 -10 -10 -10 -7 0
-10 3 -10 10 0 7 3 10 10 10 7 0 10 -3 10 -10z m2093 -87 c9 -10 9 -23 -1 -23
-10 0 -22 12 -22 22 0 10 13 10 23 1z m-2333 -38 c0 -17 -2 -18 -13 -8 -6 7
-6 9 -1 15 10 12 14 9 14 -7z m63 -2 c7 -7 7 -9 0 -15 -16 -16 -52 -2 -37 14
8 10 28 10 37 1z m0 -60 c8 -8 9 -23 2 -23 -3 0 -5 -4 -5 -10 0 -12 -12 -13
-23 -3 -10 10 -9 16 4 30 14 15 13 15 22 6z m187 -1 c0 -15 -24 -34 -33 -25
-9 9 -9 16 -1 26 9 9 34 9 34 -1z m80 -37 c0 -3 7 -5 15 -5 8 0 15 -2 15 -5 0
-3 4 -5 8 -5 10 0 22 -12 22 -22 0 -4 2 -8 5 -8 3 0 5 -20 5 -50 0 -30 -2 -50
-5 -50 -3 0 -5 -7 -5 -15 0 -8 2 -15 5 -15 11 0 6 -55 -7 -68 -13 -13 -88 -19
-88 -7 0 3 -4 5 -10 5 -5 0 -10 -2 -10 -5 0 -3 -7 -5 -15 -5 -8 0 -15 2 -15 5
0 3 -4 5 -10 5 -5 0 -10 -2 -10 -5 0 -3 -26 -5 -68 -5 -74 0 -82 3 -82 27 0
11 -2 13 -13 13 -18 0 -27 11 -27 32 0 23 11 24 31 2 10 -11 16 -14 18 -10 1
3 10 6 21 6 11 0 20 2 20 5 0 3 13 5 30 5 17 0 30 -2 30 -5 0 -3 19 -5 48 -5
56 0 62 4 62 37 0 13 2 23 5 23 3 0 5 7 5 15 0 8 2 15 5 15 3 0 5 11 5 25 0
14 -2 25 -5 25 -3 0 -5 7 -5 15 0 8 -3 15 -6 16 -5 2 -4 4 1 10 8 9 25 12 25
4z m-157 -22 c4 -4 7 -10 7 -13 0 -9 13 -20 25 -20 17 0 37 -23 28 -33 -11
-11 -17 -9 -38 13 -11 11 -22 20 -25 20 -12 0 -31 25 -24 32 8 10 18 10 27 1z
m97 -458 c0 -3 5 -5 10 -5 6 0 10 2 10 5 0 3 7 5 15 5 8 0 15 -2 15 -5 0 -3
11 -5 25 -5 14 0 25 -2 25 -5 0 -3 5 -5 10 -5 6 0 10 -2 10 -5 0 -3 6 -5 13
-5 7 0 18 -6 25 -12 12 -13 12 -13 0 -25 -13 -13 -13 -13 -120 -13 -69 0 -108
-2 -108 -5 0 -9 -154 -7 -163 2 -14 14 -4 43 15 43 4 0 8 2 8 5 0 3 4 5 9 5 5
0 12 5 16 10 4 6 13 10 21 10 8 0 14 2 14 5 0 3 28 5 75 5 47 0 75 -2 75 -5z
m1560 -5 c0 -9 -3 -10 -30 -10 -27 0 -30 1 -30 10 0 9 3 10 30 10 27 0 30 -1
30 -10z m-70 -80 c0 -9 -3 -10 -25 -10 -22 0 -25 1 -25 10 0 9 3 10 25 10 22
0 25 -1 25 -10z m120 0 c0 -7 -3 -10 -10 -10 -5 0 -10 -2 -10 -5 0 -3 -13 -5
-30 -5 -27 0 -30 1 -30 10 0 9 3 10 30 10 17 0 30 2 30 5 0 3 5 5 10 5 7 0 10
-3 10 -10z m-130 -110 c0 -9 -3 -10 -30 -10 -27 0 -30 1 -30 10 0 9 3 10 30
10 27 0 30 -1 30 -10z m100 0 c0 -8 -3 -10 -20 -10 -17 0 -20 2 -20 10 0 8 3
10 20 10 17 0 20 -2 20 -10z m120 2 c0 -13 -13 -22 -32 -22 -17 0 -18 1 -18
15 0 15 1 15 25 15 19 0 25 -2 25 -8z m-3357 -69 c20 -21 37 -40 37 -43 0 -3
11 -17 25 -30 23 -23 32 -40 20 -40 -3 0 -5 2 -5 5 0 3 -6 5 -13 5 -13 0 -27
10 -27 20 0 3 -13 19 -30 35 -16 16 -30 32 -30 36 0 4 -4 10 -10 14 -9 6 -15
35 -7 35 1 0 19 -17 40 -37z m1177 29 c0 -12 -13 -22 -27 -22 -16 0 -16 2 -2
17 13 14 29 17 29 5z m220 -7 c0 -3 7 -5 15 -5 12 0 15 -2 15 -10 0 -7 -3 -10
-10 -10 -5 0 -10 2 -10 5 0 3 -9 5 -20 5 -17 0 -20 2 -20 10 0 8 3 10 15 10 8
0 15 -2 15 -5z m1873 -32 c10 -11 9 -13 -8 -13 -12 0 -15 2 -15 10 0 12 12 13
23 3z m-250 -10 c10 -11 9 -13 -8 -13 -12 0 -15 2 -15 10 0 12 12 13 23 3z
m117 -31 c0 -23 -60 -33 -75 -12 -4 6 -11 10 -16 10 -5 0 -9 2 -9 5 0 3 20 5
50 5 42 0 50 -1 50 -8z m-3217 -59 c9 -9 0 -23 -15 -23 -4 0 -8 -2 -8 -5 0 -3
-6 -5 -14 -5 -8 0 -17 -4 -21 -10 -4 -5 -10 -10 -14 -10 -4 0 -15 -9 -26 -20
-11 -11 -23 -20 -27 -20 -4 0 -8 -2 -8 -5 0 -3 -4 -5 -10 -5 -5 0 -10 -2 -10
-5 0 -3 -7 -5 -15 -5 -8 0 -15 1 -15 3 0 5 14 17 21 17 4 0 10 5 14 10 4 6 13
10 21 10 8 0 14 2 14 5 0 3 4 5 9 5 5 0 12 5 16 10 4 6 10 10 14 10 4 0 15 9
26 20 11 11 23 20 27 20 4 0 8 2 8 5 0 7 5 6 13 -2z m3257 -1 c0 -9 -32 -42
-41 -42 -4 0 -10 -4 -14 -10 -4 -5 -10 -10 -14 -10 -4 0 -15 -9 -26 -20 -11
-11 -22 -20 -25 -20 -3 0 -14 -9 -25 -20 -11 -11 -22 -20 -26 -20 -4 0 -10 -4
-14 -10 -4 -5 -11 -10 -16 -10 -5 0 -9 -2 -9 -5 0 -3 -4 -5 -8 -5 -4 0 -16 -9
-27 -20 -11 -11 -22 -20 -25 -20 -3 0 -21 -16 -40 -35 -34 -34 -50 -43 -50
-27 0 8 32 42 40 42 3 0 19 14 35 30 16 17 32 30 36 30 4 0 10 5 14 10 4 6 10
10 14 10 8 0 21 12 21 20 0 9 13 20 25 20 6 0 17 7 25 15 8 8 17 15 21 15 4 0
10 5 14 10 4 6 10 10 14 10 4 0 13 7 21 15 8 8 17 15 21 15 3 0 14 9 24 20 18
20 35 26 35 12z m-360 -22 c0 -8 -3 -10 -20 -10 -17 0 -20 2 -20 10 0 8 3 10
20 10 17 0 20 -2 20 -10z m198 -3 c11 -11 12 -13 5 -20 -9 -9 -33 10 -33 25 0
12 14 10 28 -5z m-1158 -17 c0 -7 -3 -10 -10 -10 -7 0 -10 3 -10 10 0 7 3 10
10 10 7 0 10 -3 10 -10z m1370 -8 c0 -7 -11 -22 -17 -22 -5 0 -3 15 3 23 9 9
14 9 14 -1z m-800 -15 c0 -14 -10 -27 -22 -27 -4 0 -8 -2 -8 -5 0 -3 -4 -5
-10 -5 -8 0 -10 3 -10 15 0 11 2 15 9 15 5 0 12 5 16 10 11 15 25 13 25 -3z
m543 -14 c11 -12 9 -23 -6 -23 -11 0 -37 19 -37 27 0 6 36 3 43 -4z m-623 -13
c0 -8 -3 -10 -15 -10 -12 0 -15 2 -15 10 0 8 3 10 15 10 12 0 15 -2 15 -10z
m-290 -28 c0 -9 -12 -22 -20 -22 -12 0 -21 14 -14 22 9 10 34 10 34 0z m1090
-22 c0 -7 -3 -10 -10 -10 -5 0 -10 -2 -10 -5 0 -3 -4 -5 -10 -5 -11 0 -13 12
-4 23 10 11 34 9 34 -3z m-1700 -30 c0 -7 -3 -10 -10 -10 -7 0 -10 3 -10 10 0
7 3 10 10 10 7 0 10 -3 10 -10z m-1487 -47 c9 -10 9 -23 -1 -23 -10 0 -22 12
-22 22 0 10 13 10 23 1z m1737 -23 c0 -8 -3 -10 -15 -10 -12 0 -15 2 -15 10 0
8 3 10 15 10 12 0 15 -2 15 -10z m1313 3 c7 -7 7 -9 0 -15 -13 -13 -33 -4 -33
14 0 10 23 11 33 1z m-3153 -8 c0 -3 7 -5 15 -5 8 0 15 -2 15 -5 0 -3 5 -5 10
-5 7 0 10 -3 10 -10 0 -18 -32 -13 -53 7 -20 20 -21 23 -7 23 6 0 10 -2 10 -5z
m1640 -10 c0 -3 4 -5 8 -5 10 0 22 -12 22 -22 0 -14 -33 -10 -48 4 -10 11 -11
14 -6 20 7 9 24 11 24 3z m-1430 -55 c0 -9 -3 -10 -30 -10 -27 0 -30 1 -30 10
0 9 3 10 30 10 27 0 30 -1 30 -10z m1553 3 c12 -12 3 -33 -13 -33 -4 0 -10 -5
-15 -10 -10 -11 -10 -11 -22 2 -18 18 -13 38 9 38 4 0 8 2 8 5 0 8 25 6 33 -2z
m667 -18 c0 -3 4 -5 9 -5 5 0 12 -4 16 -10 4 -5 10 -10 14 -10 7 0 21 -12 21
-17 0 -12 -28 0 -48 19 -23 23 -26 28 -17 28 3 0 5 -2 5 -5z m-1230 -65 c0 -7
-3 -10 -10 -10 -7 0 -10 3 -10 10 0 7 3 10 10 10 7 0 10 -3 10 -10z m1443 -17
c13 -13 9 -23 -11 -23 -22 0 -36 11 -26 22 8 10 28 10 37 1z m-1043 -38 c0 -3
7 -5 15 -5 12 0 15 -2 15 -10 0 -9 -3 -10 -35 -10 -35 0 -35 0 -35 15 0 14 1
15 20 15 11 0 20 -2 20 -5z m-650 -203 c0 -10 -12 -22 -22 -22 -10 0 -10 13
-2 23 9 9 24 9 24 -1z m130 -2 c0 -9 -3 -10 -30 -10 -27 0 -30 1 -30 10 0 9 3
10 30 10 27 0 30 -1 30 -10z m830 -130 c0 -7 -3 -10 -10 -10 -7 0 -10 3 -10
10 0 7 3 10 10 10 7 0 10 -3 10 -10z m1110 -45 c0 -3 5 -5 12 -5 7 0 14 2 16
5 5 8 12 6 12 -5 0 -6 -3 -10 -9 -10 -5 0 -12 -4 -16 -10 -4 -5 -11 -10 -16
-10 -5 0 -9 -2 -9 -5 0 -7 -15 -6 -23 2 -10 10 -9 16 4 30 12 13 29 17 29 8z
m-2430 -40 c0 -3 3 -5 8 -5 8 0 52 -42 52 -50 0 -7 23 -30 30 -30 3 0 12 -7
20 -15 8 -8 17 -15 20 -15 8 0 20 -13 20 -22 0 -5 -4 -8 -10 -8 -5 0 -10 2
-10 5 0 3 -4 5 -10 5 -5 0 -10 2 -10 5 0 3 -4 5 -8 5 -4 0 -14 7 -22 15 -8 8
-17 15 -20 15 -11 0 -80 75 -80 87 0 10 3 13 10 13 6 0 10 -2 10 -5z m2048
-57 c18 -19 16 -28 -8 -28 -11 0 -20 2 -20 5 0 3 -7 5 -15 5 -10 0 -15 2 -15
8 0 24 37 30 58 10z m-155 -5 c11 -12 9 -23 -6 -23 -18 0 -30 12 -21 22 8 10
18 10 27 1z m-83 -63 c0 -8 -3 -10 -15 -10 -12 0 -15 2 -15 10 0 8 3 10 15 10
12 0 15 -2 15 -10z m-990 -10 c0 -7 -3 -10 -10 -10 -7 0 -10 3 -10 10 0 7 3
10 10 10 7 0 10 -3 10 -10z m490 0 c0 -7 -3 -10 -10 -10 -7 0 -10 3 -10 10 0
7 3 10 10 10 7 0 10 -3 10 -10z m120 0 c0 -9 -3 -10 -25 -10 -22 0 -25 1 -25
10 0 9 3 10 25 10 22 0 25 -1 25 -10z m-677 -37 c9 -9 9 -13 -1 -13 -7 0 -22
11 -22 17 0 6 16 3 23 -4z m1130 0 c12 -12 3 -33 -13 -33 -8 0 -20 13 -20 22
0 5 4 8 10 8 6 0 10 2 10 5 0 7 4 6 13 -2z m-198 -13 c4 -5 10 -10 14 -10 14
0 23 -14 14 -22 -8 -9 -33 -11 -33 -3 0 3 -4 5 -8 5 -12 0 -22 13 -22 27 0 17
24 19 35 3z m-167 -22 c24 -25 26 -30 15 -41 -8 -8 -23 -9 -23 -2 0 3 -3 5 -8
5 -12 0 -42 33 -42 47 0 23 30 18 58 -9z m-850 -11 c11 -11 12 -13 5 -20 -11
-11 -37 14 -27 25 8 10 7 10 22 -5z m752 -32 c13 -14 27 -25 30 -25 8 0 20
-13 20 -22 0 -16 -16 -7 -53 29 -20 21 -37 39 -37 40 0 10 19 -1 40 -22z
m-577 -12 c15 -15 9 -23 -18 -23 -14 0 -25 -2 -25 -5 0 -3 -2 -5 -5 -5 -9 0
-5 15 6 27 13 14 31 16 42 6z m930 -10 c11 -12 9 -23 -6 -23 -18 0 -30 12 -21
22 8 10 18 10 27 1z m-1253 -83 c0 -8 -3 -10 -15 -10 -12 0 -15 2 -15 10 0 8
3 10 15 10 12 0 15 -2 15 -10z m330 -5 c0 -3 7 -5 15 -5 12 0 15 -2 15 -10 0
-8 -3 -10 -15 -10 -8 0 -15 -2 -15 -5 0 -3 -9 -5 -20 -5 -11 0 -20 -2 -20 -5
0 -3 -9 -5 -20 -5 -15 0 -20 2 -20 8 0 10 22 32 32 32 5 0 8 2 8 5 0 3 9 5 20
5 11 0 20 -2 20 -5z m-90 -55 c0 -7 -3 -10 -10 -10 -7 0 -10 3 -10 10 0 7 3
10 10 10 7 0 10 -3 10 -10z m680 -25 c0 -3 5 -5 10 -5 6 0 10 2 10 5 0 3 5 5
10 5 7 0 10 -3 10 -10 0 -7 -3 -10 -10 -10 -5 0 -10 -2 -10 -5 0 -7 -15 -6
-23 2 -8 8 -9 23 -2 23 3 0 5 -2 5 -5z"/>
<path d="M2480 6015 c0 -3 -3 -5 -8 -5 -11 0 -72 -63 -72 -75 0 -12 11 -25 20
-25 7 0 20 13 20 20 0 8 13 20 22 20 4 0 8 2 8 5 0 8 45 6 53 -2 16 -16 4 -43
-20 -43 -7 0 -13 -2 -13 -5 0 -3 -7 -5 -15 -5 -19 0 -20 -11 -3 -28 19 -19 40
-16 63 8 11 11 22 20 25 20 10 0 20 14 20 27 0 7 -2 13 -5 13 -3 0 -5 3 -5 8
0 13 -63 72 -77 72 -7 0 -13 -2 -13 -5z"/>
<path d="M3260 2840 c0 -5 2 -10 5 -10 3 0 5 -4 5 -10 0 -5 2 -10 5 -10 10 0
6 -47 -5 -55 -10 -7 -14 -25 -5 -25 3 0 5 4 5 8 0 4 7 14 15 22 15 14 21 40
10 40 -3 0 -5 6 -5 13 0 7 -6 18 -12 25 -15 15 -18 15 -18 2z"/>
<path d="M836 2793 c-3 -4 -6 -11 -6 -14 0 -4 -4 -10 -10 -14 -5 -4 -10 -11
-10 -16 0 -5 -2 -9 -5 -9 -3 0 -5 -4 -5 -8 0 -4 -7 -14 -15 -22 -8 -8 -15 -17
-15 -20 0 -3 -16 -21 -35 -40 -19 -19 -35 -37 -35 -40 0 -7 -33 -40 -40 -40
-3 0 -25 -20 -50 -45 -25 -25 -48 -45 -52 -45 -5 0 -8 -2 -8 -5 0 -3 -4 -5
-10 -5 -5 0 -10 -2 -10 -5 0 -3 -11 -5 -25 -5 -14 0 -25 2 -25 5 0 3 -15 5
-35 5 -20 0 -35 -2 -35 -5 0 -3 -6 -5 -13 -5 -16 0 -37 -21 -37 -37 0 -7 2
-13 5 -13 3 0 5 -9 5 -20 0 -11 2 -20 5 -20 3 0 5 -7 5 -15 0 -8 2 -15 5 -15
3 0 5 -4 5 -8 0 -4 9 -16 20 -27 11 -11 20 -22 20 -25 0 -7 13 -20 20 -20 3 0
12 -7 20 -15 8 -8 18 -15 22 -15 4 0 8 -2 8 -5 0 -3 11 -5 25 -5 14 0 25 -2
25 -5 0 -3 20 -5 50 -5 30 0 50 2 50 5 0 3 5 5 10 5 6 0 10 2 10 5 0 3 7 5 15
5 8 0 15 2 15 5 0 3 6 5 14 5 8 0 17 4 21 10 4 6 11 10 16 10 5 0 9 2 9 5 0 3
4 5 9 5 5 0 12 5 16 10 4 6 11 10 15 10 4 0 11 5 15 10 4 6 10 10 14 10 4 0
15 9 26 20 11 11 22 20 25 20 8 0 70 64 70 72 0 5 2 8 5 8 3 0 5 4 5 8 0 4 7
14 15 22 8 8 15 18 15 22 0 4 2 8 5 8 3 0 5 4 5 9 0 5 5 12 10 16 6 4 10 11
10 16 0 5 2 9 5 9 3 0 5 4 5 9 0 5 5 12 10 16 6 4 10 11 10 15 0 4 5 11 10 15
16 12 8 35 -12 35 -4 0 -8 2 -8 5 0 3 -3 5 -8 5 -4 0 -43 36 -87 80 -81 81
-94 90 -109 73z m32 -95 c6 -7 12 -15 12 -18 0 -8 23 -30 32 -30 5 0 8 -2 8
-5 0 -3 5 -5 10 -5 7 0 10 -3 10 -10 0 -7 -3 -10 -10 -10 -5 0 -10 2 -10 5 0
3 -4 5 -8 5 -4 0 -14 7 -22 15 -11 11 -18 15 -32 15 -10 0 -18 2 -18 5 0 3 -6
5 -13 5 -13 0 -27 10 -27 20 0 22 48 28 68 8z m-118 -168 c0 -8 -3 -10 -15
-10 -12 0 -15 2 -15 10 0 8 3 10 15 10 12 0 15 -2 15 -10z m100 -5 c0 -3 5 -5
10 -5 6 0 10 -2 10 -5 0 -3 5 -5 10 -5 6 0 10 -2 10 -5 0 -3 3 -5 8 -5 10 0
42 -32 42 -42 0 -17 -25 -9 -50 17 -13 14 -28 25 -32 25 -4 0 -8 2 -8 5 0 3
-4 5 -8 5 -7 0 -22 11 -22 17 0 2 7 3 15 3 8 0 15 -2 15 -5z m-240 -93 c0 -10
-12 -22 -22 -22 -4 0 -8 -2 -8 -5 0 -3 -6 -5 -13 -5 -9 0 -20 -8 -37 -25 -26
-27 -32 -29 -43 -18 -10 10 11 33 30 33 7 0 13 2 13 5 0 3 4 5 9 5 5 0 16 9
26 20 19 21 45 28 45 12z m110 -10 c0 -12 -13 -22 -27 -22 -14 0 -17 11 -7 23
9 9 34 9 34 -1z m130 0 c0 -10 -32 -42 -42 -42 -12 0 -10 23 3 37 13 14 39 17
39 5z m-60 -50 c0 -9 -12 -22 -21 -22 -4 0 -10 -4 -14 -10 -4 -5 -12 -10 -18
-10 -6 0 -18 -7 -26 -15 -9 -8 -19 -15 -23 -15 -5 0 -8 -2 -8 -5 0 -3 -4 -5
-10 -5 -5 0 -10 -2 -10 -5 0 -3 -7 -5 -15 -5 -12 0 -15 2 -15 10 0 7 3 10 10
10 6 0 10 2 10 5 0 3 5 5 10 5 6 0 10 2 10 5 0 3 9 5 20 5 17 0 20 2 20 10 0
6 3 10 9 10 5 0 12 5 16 10 4 6 11 10 15 10 4 0 11 5 15 10 9 12 25 13 25 2z"/>
<path d="M1721 2757 c-11 -12 -21 -25 -21 -29 0 -5 -2 -8 -5 -8 -3 0 -5 -4 -5
-10 0 -5 -2 -10 -5 -10 -3 0 -5 -4 -5 -10 0 -5 -2 -10 -5 -10 -3 0 -5 -4 -5
-10 0 -5 -2 -10 -5 -10 -3 0 -5 -7 -5 -15 0 -8 -2 -15 -5 -15 -3 0 -5 -7 -5
-15 0 -8 -2 -15 -5 -15 -3 0 -5 -4 -5 -10 0 -5 -2 -10 -5 -10 -3 0 -5 -7 -5
-15 0 -8 -2 -15 -5 -15 -3 0 -5 -4 -5 -10 0 -5 -2 -10 -5 -10 -3 0 -5 -4 -5
-10 0 -5 -2 -10 -5 -10 -3 0 -5 -4 -5 -10 0 -5 -2 -10 -5 -10 -3 0 -5 -7 -5
-15 0 -8 -2 -15 -5 -15 -3 0 -5 -6 -5 -14 0 -8 -4 -17 -10 -21 -5 -4 -10 -11
-10 -16 0 -5 -2 -9 -5 -9 -3 0 -5 -9 -5 -19 0 -13 -3 -21 -10 -26 -5 -4 -10
-11 -10 -16 0 -5 -2 -9 -5 -9 -3 0 -5 -4 -5 -10 0 -5 -2 -10 -5 -10 -3 0 -5
-4 -5 -10 0 -5 -2 -10 -5 -10 -3 0 -5 -4 -5 -10 0 -5 -2 -10 -5 -10 -3 0 -5
-4 -5 -10 0 -5 -2 -10 -5 -10 -3 0 -5 -4 -5 -9 0 -5 -4 -12 -10 -16 -5 -4 -10
-11 -10 -16 0 -5 -2 -9 -5 -9 -3 0 -5 -3 -5 -8 0 -19 -23 -32 -57 -32 -19 0
-33 2 -33 5 0 3 -7 5 -15 5 -8 0 -15 2 -15 5 0 3 -7 5 -15 5 -8 0 -15 2 -15 5
0 3 -4 5 -10 5 -5 0 -10 2 -10 5 0 3 -9 5 -20 5 -11 0 -20 2 -20 5 0 3 -9 5
-20 5 -11 0 -20 2 -20 5 0 3 -13 5 -30 5 -17 0 -30 2 -30 5 0 3 -40 5 -110 5
-70 0 -110 -2 -110 -5 0 -3 -11 -5 -24 -5 -18 0 -26 -2 -31 -10 -4 -5 -10 -10
-14 -10 -8 0 -41 -32 -41 -40 0 -3 -9 -14 -20 -25 -11 -11 -20 -24 -20 -30 0
-6 -7 -17 -15 -25 -8 -8 -15 -18 -15 -22 0 -4 -2 -8 -5 -8 -3 0 -5 -4 -5 -10
0 -5 -2 -10 -5 -10 -3 0 -5 -20 -5 -50 0 -30 2 -50 5 -50 3 0 5 -4 5 -10 0 -8
3 -10 18 -10 19 0 42 18 42 32 0 5 2 8 5 8 3 0 5 9 5 20 0 20 0 20 20 20 11 0
20 -2 20 -5 0 -3 17 -5 40 -5 23 0 40 2 40 5 0 3 3 5 8 5 4 0 25 18 47 40 22
22 43 40 47 40 5 0 8 2 8 5 0 3 5 5 10 5 6 0 10 2 10 5 0 3 38 5 105 5 67 0
105 -2 105 -5 0 -3 10 -5 23 -5 34 0 53 -20 35 -37 -7 -7 -18 -13 -24 -13 -7
0 -15 -4 -19 -10 -4 -5 -11 -10 -16 -10 -5 0 -9 -2 -9 -5 0 -3 -4 -5 -9 -5 -5
0 -12 -4 -16 -10 -4 -5 -11 -10 -16 -10 -5 0 -9 -2 -9 -5 0 -3 -4 -5 -10 -5
-5 0 -10 -2 -10 -5 0 -3 -4 -5 -10 -5 -5 0 -10 -2 -10 -5 0 -3 -4 -5 -9 -5 -5
0 -12 -4 -16 -10 -4 -5 -10 -10 -14 -10 -9 0 -61 -53 -61 -62 0 -5 -2 -8 -5
-8 -3 0 -5 -15 -5 -35 0 -20 -2 -35 -5 -35 -3 0 -5 -7 -5 -15 0 -8 2 -15 5
-15 3 0 5 -7 5 -15 0 -18 14 -21 25 -5 7 10 25 14 25 5 0 -3 7 -5 15 -5 8 0
15 -2 15 -5 0 -3 7 -5 15 -5 8 0 15 -2 15 -5 0 -3 5 -5 10 -5 6 0 10 -2 10 -5
0 -3 6 -5 13 -5 13 0 47 30 47 41 0 4 5 10 10 14 6 4 10 13 10 21 0 8 2 14 5
14 3 0 5 9 5 20 0 11 2 20 5 20 3 0 5 9 5 20 0 11 2 20 5 20 3 0 5 7 5 15 0
19 -2 19 -23 -2 -10 -11 -17 -23 -17 -30 0 -7 -2 -13 -5 -13 -3 0 -5 -8 -5
-18 0 -19 -27 -52 -42 -52 -5 0 -8 -2 -8 -5 0 -3 -7 -5 -15 -5 -8 0 -15 2 -15
5 0 3 -4 5 -10 5 -5 0 -10 2 -10 5 0 3 -7 5 -15 5 -8 0 -15 2 -15 5 0 3 -4 5
-10 5 -5 0 -10 2 -10 5 0 3 -4 5 -10 5 -18 0 -12 23 12 48 13 12 25 22 28 22
3 0 12 7 20 15 8 8 18 15 22 15 4 0 8 2 8 5 0 3 5 5 10 5 6 0 10 2 10 5 0 3 6
5 14 5 8 0 17 4 21 10 4 6 11 10 16 10 5 0 9 2 9 5 0 3 4 5 10 5 5 0 10 3 11
6 4 11 19 -9 19 -23 0 -10 3 -13 10 -13 8 0 10 3 10 15 0 8 2 15 5 15 3 0 5 3
5 8 0 4 8 15 17 25 10 9 21 17 25 17 5 0 8 2 8 5 0 3 2 5 5 5 3 0 5 -4 5 -9 0
-5 5 -12 10 -16 6 -4 10 -11 10 -15 0 -4 5 -11 10 -15 11 -8 15 -45 5 -45 -3
0 -5 -4 -5 -10 0 -5 -2 -10 -5 -10 -3 0 -5 -9 -5 -20 0 -11 -2 -20 -5 -20 -3
0 -5 -4 -5 -10 0 -5 -2 -10 -5 -10 -3 0 -5 -4 -5 -9 0 -5 -4 -12 -10 -16 -6
-4 -10 -13 -10 -21 0 -8 -2 -14 -5 -14 -3 0 -5 -15 -5 -35 0 -20 2 -35 5 -35
3 0 5 -6 5 -13 0 -9 10 -22 35 -47 19 -19 35 -37 35 -40 0 -10 25 -30 37 -30
7 0 13 -2 13 -5 0 -3 32 -5 85 -5 85 0 85 0 85 15 0 14 -1 15 -20 15 -11 0
-20 2 -20 5 0 3 -7 5 -15 5 -8 0 -15 2 -15 5 0 3 -15 5 -35 5 -32 0 -35 1 -35
10 0 6 3 10 8 10 8 0 52 42 52 50 0 3 7 12 15 20 28 26 22 58 -15 95 -16 16
-30 32 -30 35 0 3 -20 25 -45 50 -45 45 -45 45 -45 70 0 26 -7 40 -21 40 -4 0
-10 5 -14 10 -4 6 -12 10 -19 10 -13 0 -26 11 -26 21 0 4 -4 10 -10 14 -5 4
-10 10 -10 14 0 14 -34 41 -52 41 -10 0 -18 2 -18 5 0 3 -4 5 -10 5 -5 0 -10
2 -10 5 0 3 -4 5 -10 5 -5 0 -10 2 -10 5 0 3 -7 5 -15 5 -8 0 -15 2 -15 5 0 3
-7 5 -15 5 -8 0 -15 -2 -15 -5 0 -3 -15 -5 -35 -5 -20 0 -35 2 -35 5 0 3 -9 5
-20 5 -11 0 -20 -2 -20 -5 0 -3 -4 -5 -8 -5 -4 0 -14 -7 -22 -15 -8 -8 -17
-15 -20 -15 -3 0 -28 -22 -55 -50 -65 -65 -74 -67 -123 -18 -17 18 -32 36 -32
40 0 5 -2 8 -5 8 -9 0 -5 18 5 25 6 4 10 10 10 14 0 9 23 31 32 31 5 0 8 2 8
5 0 3 5 5 10 5 6 0 10 2 10 5 0 3 7 5 15 5 8 0 15 2 15 5 0 3 30 5 80 5 50 0
80 2 80 5 0 3 13 5 30 5 17 0 30 -2 30 -5 0 -3 11 -5 25 -5 14 0 25 -2 25 -5
0 -3 7 -5 15 -5 8 0 15 -2 15 -5 0 -3 5 -5 10 -5 6 0 10 -2 10 -5 0 -3 9 -5
20 -5 11 0 20 -2 20 -5 0 -3 9 -5 20 -5 11 0 20 -2 20 -5 0 -3 5 -5 10 -5 6 0
10 -2 10 -5 0 -3 5 -5 10 -5 6 0 10 -2 10 -5 0 -3 13 -5 30 -5 17 0 30 2 30 5
0 3 5 5 10 5 6 0 10 2 10 5 0 3 4 5 9 5 5 0 12 5 16 10 6 9 13 10 50 10 37 0
44 1 50 10 4 6 10 10 14 10 8 0 41 32 41 40 0 3 11 17 25 30 14 13 25 27 25
31 0 4 5 10 10 14 12 9 14 35 2 35 -4 0 -16 -9 -27 -20 -25 -26 -43 -27 -68
-2 -17 17 -17 17 -5 30 7 6 15 12 18 12 8 0 20 13 20 22 0 5 -4 8 -10 8 -5 0
-10 -2 -10 -5 0 -3 -4 -5 -10 -5 -7 0 -10 3 -10 10 0 6 2 10 5 10 3 0 5 5 5
10 0 6 2 10 5 10 3 0 5 5 5 10 0 6 2 10 5 10 3 0 5 4 5 8 0 10 12 22 22 22 4
0 8 2 8 5 0 3 8 5 18 5 13 0 21 4 35 18 18 17 18 17 2 32 -15 14 -23 70 -10
70 3 0 5 7 5 15 0 8 2 15 5 15 3 0 5 5 5 10 0 6 2 10 5 10 3 0 5 5 5 10 0 6 2
10 5 10 3 0 5 5 5 10 0 6 2 10 5 10 3 0 5 5 5 10 0 6 2 10 5 10 3 0 5 3 5 8 0
11 23 32 35 32 21 0 27 13 13 27 -18 18 -32 16 -57 -10z m-148 -494 c8 -8 10
-43 2 -43 -3 0 -5 -4 -5 -8 0 -13 -14 -22 -35 -22 -33 0 -48 28 -25 45 6 4 10
10 10 14 0 19 38 29 53 14z m-783 -218 c0 -14 2 -25 5 -25 3 0 5 -4 5 -10 0
-7 -3 -10 -10 -10 -5 0 -10 -2 -10 -5 0 -7 -15 -6 -23 2 -8 8 -10 43 -2 43 3
0 5 3 5 8 0 10 11 22 21 22 7 0 9 -4 9 -25z m693 -172 c15 -15 27 -31 27 -34
0 -4 5 -10 10 -14 6 -4 10 -11 10 -15 0 -4 5 -11 10 -15 6 -4 10 -13 10 -21 0
-8 2 -14 5 -14 3 0 5 -6 5 -13 0 -13 -20 -37 -31 -37 -4 0 -10 -4 -14 -10 -4
-5 -10 -10 -14 -10 -4 0 -15 -9 -26 -20 -11 -11 -22 -20 -25 -20 -8 0 -40 34
-40 42 0 5 -2 8 -5 8 -3 0 -5 9 -5 20 0 11 -2 20 -5 20 -3 0 -5 5 -5 10 0 6 2
10 5 10 3 0 5 6 5 13 0 27 13 30 35 7 18 -18 21 -20 27 -13 15 14 -5 43 -29
43 -17 0 -18 24 -3 35 7 5 10 13 10 24 0 13 7 30 14 31 1 0 14 -12 29 -27z"/>
<path d="M1750 2632 c0 -15 24 -34 33 -25 7 7 6 9 -5 20 -14 15 -28 17 -28 5z"/>
<path d="M1825 2600 c-10 -11 -21 -20 -26 -20 -5 0 -9 -2 -9 -5 0 -3 -6 -5
-13 -5 -27 0 -36 -27 -15 -48 20 -19 58 -6 58 20 0 5 2 8 5 8 3 0 5 5 5 10 0
6 2 10 5 10 3 0 5 9 5 20 0 11 2 20 5 20 3 0 5 2 5 5 0 9 -7 5 -25 -15z"/>
<path d="M1120 2577 c0 -6 15 -17 22 -17 4 0 8 -2 8 -5 0 -3 7 -5 15 -5 8 0
15 -2 15 -5 0 -3 9 -5 20 -5 11 0 20 -2 20 -5 0 -3 11 -5 25 -5 22 0 25 1 25
10 0 8 -3 10 -15 10 -8 0 -15 2 -15 5 0 3 -7 5 -15 5 -8 0 -15 2 -15 5 0 3 -9
5 -20 5 -11 0 -20 2 -20 5 0 3 -11 5 -25 5 -14 0 -25 -1 -25 -3z"/>
<path d="M4020 2505 c0 -3 -7 -5 -15 -5 -8 0 -15 -2 -15 -5 0 -3 -7 -5 -15 -5
-8 0 -15 -2 -15 -5 0 -3 -4 -5 -10 -5 -5 0 -10 -2 -10 -5 0 -3 -4 -5 -10 -5
-5 0 -10 -2 -10 -5 0 -3 -6 -5 -13 -5 -8 0 -18 -6 -27 -15 -8 -8 -17 -15 -21
-15 -4 0 -10 -4 -14 -10 -4 -5 -11 -10 -15 -10 -4 0 -11 -4 -15 -10 -4 -5 -11
-10 -15 -10 -4 0 -11 -4 -15 -10 -4 -5 -11 -10 -16 -10 -5 0 -9 -2 -9 -5 0 -3
-11 -5 -25 -5 -14 0 -25 -2 -25 -5 0 -3 -4 -5 -10 -5 -5 0 -10 2 -10 5 0 3 -4
5 -10 5 -5 0 -10 2 -10 5 0 3 -4 5 -10 5 -5 0 -10 2 -10 5 0 3 -4 5 -9 5 -5 0
-12 5 -16 10 -4 6 -10 10 -14 10 -9 0 -31 23 -31 32 0 5 -2 8 -5 8 -3 0 -5 3
-5 8 0 10 -22 32 -32 32 -12 0 -11 -36 2 -45 6 -4 10 -11 10 -16 0 -5 2 -9 5
-9 3 0 5 -4 5 -10 0 -5 2 -10 5 -10 3 0 5 -3 5 -8 0 -10 52 -62 62 -62 5 0 8
-2 8 -5 0 -3 13 -5 30 -5 17 0 30 2 30 5 0 3 9 5 20 5 11 0 20 2 20 5 0 8 74
6 83 -2 9 -9 -10 -33 -25 -33 -5 0 -8 -2 -8 -5 0 -3 -7 -5 -15 -5 -8 0 -15 -2
-15 -5 0 -3 -4 -5 -10 -5 -5 0 -10 -2 -10 -5 0 -3 -4 -5 -10 -5 -7 0 -10 -3
-10 -10 0 -9 3 -10 60 -10 37 0 60 -2 60 -5 0 -3 20 -5 50 -5 30 0 50 -2 50
-5 0 -3 9 -5 20 -5 11 0 20 -2 20 -5 0 -3 13 -5 30 -5 17 0 30 -2 30 -5 0 -3
20 -5 50 -5 30 0 50 -2 50 -5 0 -3 7 -5 15 -5 8 0 15 -2 15 -5 0 -3 3 -5 8 -5
9 0 32 -22 32 -30 0 -3 7 -12 15 -20 21 -20 17 -50 -7 -50 -4 0 -8 -2 -8 -5 0
-3 -4 -5 -10 -5 -5 0 -10 -2 -10 -5 0 -10 -67 -6 -75 5 -4 6 -10 10 -14 10 -3
0 -22 16 -41 35 -25 25 -38 35 -47 35 -7 0 -13 2 -13 5 0 3 -9 5 -20 5 -11 0
-20 2 -20 5 0 3 -9 5 -20 5 -11 0 -20 2 -20 5 0 3 -23 5 -60 5 -37 0 -60 2
-60 5 0 3 -11 5 -25 5 -14 0 -25 2 -25 5 0 8 -35 6 -43 -2 -8 -8 10 -33 23
-33 3 0 17 -11 30 -25 27 -28 40 -32 40 -12 0 23 10 27 62 27 29 0 48 -2 48
-5 0 -3 7 -5 15 -5 8 0 15 -2 15 -5 0 -3 5 -5 10 -5 6 0 10 -2 10 -5 0 -3 5
-5 10 -5 6 0 10 -2 10 -5 0 -3 4 -5 8 -5 4 0 14 -7 22 -15 8 -8 18 -15 22 -15
4 0 8 -2 8 -5 0 -3 4 -5 9 -5 5 0 12 -4 16 -10 4 -5 10 -10 14 -10 4 0 13 -7
21 -15 8 -8 18 -15 22 -15 4 0 8 -2 8 -5 0 -3 13 -5 30 -5 17 0 30 2 30 5 0 3
5 5 10 5 6 0 10 2 10 5 0 3 13 5 30 5 17 0 30 -2 30 -5 0 -3 5 -5 10 -5 6 0
10 -2 10 -5 0 -3 7 -5 15 -5 8 0 15 -2 15 -5 0 -8 15 -6 24 3 6 6 7 9 2 11 -3
1 -6 6 -6 10 0 5 -4 12 -10 16 -5 4 -10 11 -10 16 0 5 -2 9 -5 9 -3 0 -5 7 -5
15 0 8 -2 15 -5 15 -3 0 -5 6 -5 13 0 13 -69 87 -81 87 -4 0 -10 5 -14 10 -4
6 -13 10 -21 10 -8 0 -14 2 -14 5 0 3 -9 5 -20 5 -11 0 -20 2 -20 5 0 3 -22 5
-55 5 -33 0 -55 2 -55 5 0 3 -15 5 -35 5 -20 0 -35 2 -35 5 0 3 -6 5 -13 5 -7
0 -16 3 -20 7 -12 12 11 33 35 33 10 0 18 2 18 5 0 3 13 5 30 5 17 0 30 -2 30
-5 0 -3 7 -5 15 -5 8 0 15 2 15 5 0 3 9 5 20 5 11 0 20 2 20 5 0 3 5 5 10 5 6
0 10 2 10 5 0 3 5 5 10 5 6 0 10 2 10 5 0 3 5 5 10 5 6 0 10 2 10 5 0 3 15 5
35 5 20 0 35 -2 35 -5 0 -3 9 -5 20 -5 11 0 20 -2 20 -5 0 -8 55 -6 63 2 8 9
-50 73 -65 73 -5 0 -8 2 -8 5 0 3 -4 5 -10 5 -5 0 -10 2 -10 5 0 3 -7 5 -15 5
-8 0 -15 2 -15 5 0 3 -4 5 -9 5 -5 0 -12 5 -16 10 -4 6 -13 10 -21 10 -8 0
-14 2 -14 5 0 3 -4 5 -10 5 -5 0 -10 2 -10 5 0 3 -7 5 -15 5 -8 0 -15 2 -15 5
0 3 -4 5 -10 5 -5 0 -10 2 -10 5 0 3 -9 5 -20 5 -11 0 -20 2 -20 5 0 3 -4 5
-10 5 -5 0 -10 -2 -10 -5z m50 -50 c0 -3 7 -5 15 -5 8 0 15 -2 15 -5 0 -3 4
-5 9 -5 5 0 12 -4 16 -10 4 -5 11 -10 16 -10 6 0 9 -4 9 -10 0 -7 -3 -10 -10
-10 -5 0 -10 -2 -10 -5 0 -3 -4 -5 -10 -5 -5 0 -10 -2 -10 -5 0 -3 -4 -5 -10
-5 -5 0 -10 -2 -10 -5 0 -3 -7 -5 -15 -5 -8 0 -15 -2 -15 -5 0 -3 -9 -5 -20
-5 -11 0 -20 -2 -20 -5 0 -3 -15 -5 -35 -5 -20 0 -35 -2 -35 -5 0 -3 -11 -5
-25 -5 -14 0 -25 -2 -25 -5 0 -3 -8 -5 -18 -5 -20 0 -42 18 -42 35 0 11 31 45
41 45 4 0 10 5 14 10 4 6 11 10 16 10 5 0 9 2 9 5 0 3 5 5 10 5 6 0 10 2 10 5
0 3 5 5 10 5 6 0 10 2 10 5 0 3 22 5 55 5 33 0 55 -2 55 -5z m140 -45 c0 -7
-3 -10 -10 -10 -7 0 -10 3 -10 10 0 7 3 10 10 10 7 0 10 -3 10 -10z"/>
<path d="M3440 2495 c0 -3 -7 -5 -15 -5 -8 0 -15 -2 -15 -5 0 -3 -7 -5 -15 -5
-8 0 -15 2 -15 5 0 3 -2 5 -5 5 -10 0 -6 -37 5 -45 6 -4 10 -10 10 -14 0 -4 9
-15 20 -26 11 -11 20 -23 20 -27 0 -4 2 -8 5 -8 3 0 5 -4 5 -10 0 -5 2 -10 5
-10 3 0 5 -4 5 -10 0 -5 2 -10 5 -10 3 0 5 -4 5 -8 0 -4 7 -14 15 -22 16 -15
16 -15 -2 -32 -10 -10 -21 -18 -25 -18 -5 0 -8 -2 -8 -5 0 -3 -7 -5 -15 -5 -8
0 -15 -2 -15 -5 0 -3 -4 -5 -10 -5 -5 0 -10 -2 -10 -5 0 -3 -4 -5 -10 -5 -5 0
-10 -2 -10 -5 0 -3 -4 -5 -9 -5 -5 0 -12 -4 -16 -10 -4 -5 -11 -10 -16 -10 -5
0 -9 -2 -9 -5 0 -3 -4 -5 -10 -5 -5 0 -10 -2 -10 -5 0 -3 -4 -5 -10 -5 -5 0
-10 -2 -10 -5 0 -3 -4 -5 -10 -5 -5 0 -10 -2 -10 -5 0 -3 -7 -5 -15 -5 -8 0
-15 -2 -15 -5 0 -3 -7 -5 -15 -5 -8 0 -15 -2 -15 -5 0 -3 -7 -5 -15 -5 -8 0
-15 -2 -15 -5 0 -3 -3 -5 -8 -5 -10 0 -32 -22 -32 -32 0 -5 -2 -8 -5 -8 -3 0
-5 -7 -5 -15 0 -12 2 -15 10 -15 6 0 10 2 10 5 0 3 5 5 10 5 6 0 10 2 10 5 0
3 14 5 33 5 30 0 34 1 47 15 8 8 18 15 22 15 4 0 8 2 8 5 0 3 5 5 10 5 6 0 10
2 10 5 0 3 10 5 23 5 21 0 25 2 52 30 16 17 32 30 36 30 4 0 10 5 14 10 4 6
11 10 16 10 5 0 9 2 9 5 0 3 4 5 9 5 5 0 12 5 16 10 4 6 12 10 19 10 6 0 15 3
19 7 8 8 10 33 2 33 -9 0 -5 16 6 26 8 7 9 11 5 13 -3 1 -6 5 -6 9 0 5 -7 14
-15 22 -8 8 -15 18 -15 22 0 4 -2 8 -5 8 -3 0 -5 5 -5 10 0 6 -2 10 -5 10 -3
0 -5 6 -5 14 0 8 -4 17 -10 21 -14 10 -13 38 1 50 9 9 9 10 2 17 -8 9 -13 10
-13 3z"/>
<path d="M1746 2472 c-9 -9 -16 -19 -16 -22 0 -12 -15 -20 -36 -20 -16 0 -24
-3 -29 -10 -4 -5 -10 -10 -14 -10 -9 0 -21 -13 -21 -22 0 -6 5 -8 15 -8 8 0
15 -2 15 -5 0 -3 5 -5 10 -5 6 0 10 -2 10 -5 0 -3 6 -5 13 -5 14 0 37 20 37
32 0 5 2 8 5 8 3 0 5 4 5 9 0 5 5 12 10 16 6 4 10 11 10 15 0 4 5 11 10 15 6
4 10 13 10 21 0 19 -13 18 -34 -4z"/>
<path d="M3570 2260 c0 -8 3 -10 20 -10 17 0 20 2 20 10 0 8 -3 10 -20 10 -17
0 -20 -2 -20 -10z"/>
<path d="M3600 2215 c0 -3 -7 -5 -15 -5 -8 0 -15 -2 -15 -5 0 -3 -7 -5 -15 -5
-8 0 -15 -2 -15 -5 0 -3 -7 -5 -15 -5 -8 0 -15 -2 -15 -5 0 -3 -3 -5 -8 -5 -4
0 -21 -13 -37 -30 -16 -16 -32 -30 -35 -30 -3 0 -12 -7 -20 -15 -11 -11 -18
-15 -32 -15 -10 0 -18 -2 -18 -5 0 -3 -4 -5 -10 -5 -16 0 -13 -23 5 -40 14
-13 15 -17 15 -47 0 -19 -2 -33 -5 -33 -3 0 -5 -4 -5 -8 0 -4 -3 -11 -7 -15
-4 -4 -11 -7 -15 -7 -4 0 -8 -2 -8 -5 0 -3 -13 -5 -30 -5 -17 0 -30 2 -30 5 0
3 -4 5 -10 5 -5 0 -10 2 -10 5 0 3 -4 5 -8 5 -4 0 -14 7 -22 15 -8 8 -17 15
-21 15 -4 0 -10 5 -14 10 -4 6 -10 10 -14 10 -4 0 -13 7 -21 15 -20 22 -30 20
-30 -5 0 -11 2 -20 5 -20 3 0 5 -4 5 -10 0 -5 -2 -10 -5 -10 -3 0 -5 -7 -5
-15 0 -8 2 -15 5 -15 3 0 5 -4 5 -10 0 -5 -2 -10 -5 -10 -3 0 -5 -22 -5 -55 0
-33 2 -55 5 -55 3 0 5 -3 5 -8 0 -22 38 -40 53 -25 8 8 9 23 2 23 -8 0 -6 94
2 103 8 8 33 10 33 2 0 -3 11 -5 25 -5 14 0 25 -2 25 -5 0 -3 14 -5 33 -5 32
0 33 0 55 22 12 13 22 26 22 30 0 5 2 8 5 8 3 0 5 7 5 15 0 8 2 15 5 15 3 0 5
4 5 8 0 4 7 14 15 22 22 20 16 40 -12 40 -11 0 -13 2 -13 13 0 16 11 27 27 27
7 0 13 2 13 5 0 3 5 5 10 5 6 0 10 2 10 5 0 3 5 5 10 5 6 0 10 2 10 5 0 3 5 5
10 5 6 0 10 2 10 5 0 3 5 5 10 5 6 0 10 2 10 5 0 3 5 5 10 5 6 0 10 2 10 5 0
3 5 5 10 5 6 0 10 2 10 5 0 3 7 5 15 5 8 0 15 2 15 5 0 3 8 5 18 5 18 0 82
-56 82 -72 0 -5 2 -8 5 -8 3 0 5 -6 5 -13 0 -9 7 -20 21 -33 13 -13 19 -21 15
-23 -3 -1 -6 -6 -6 -11 0 -6 -2 -10 -5 -10 -3 0 -5 -7 -5 -15 0 -24 29 -22 55
5 28 29 85 28 85 -2 0 -4 2 -8 5 -8 3 0 5 -11 5 -25 0 -14 2 -25 5 -25 9 0 5
-18 -5 -25 -5 -4 -10 -10 -10 -14 0 -12 -44 -51 -57 -51 -7 0 -13 2 -13 5 0 3
-3 5 -8 5 -16 0 -72 64 -72 82 0 20 -2 22 -13 11 -8 -8 -10 -53 -2 -53 3 0 5
-8 5 -18 0 -15 4 -22 30 -47 36 -35 38 -45 10 -45 -11 0 -20 2 -20 5 0 11 -17
4 -35 -15 -11 -11 -23 -20 -27 -20 -4 0 -8 -2 -8 -5 0 -3 -4 -5 -10 -5 -5 0
-10 -2 -10 -5 0 -3 -3 -5 -8 -5 -15 0 -43 -34 -35 -43 8 -8 53 -10 53 -2 0 3
5 5 10 5 6 0 10 2 10 5 0 3 5 5 10 5 6 0 10 2 10 5 0 3 4 5 9 5 5 0 12 5 16
10 4 6 10 10 14 10 4 0 13 7 21 15 8 8 18 15 22 15 4 0 8 2 8 5 0 3 10 5 23 5
24 0 57 25 57 42 0 5 2 8 5 8 3 0 5 4 5 8 0 4 9 16 20 27 13 13 20 24 20 32 0
7 2 13 5 13 3 0 5 11 5 25 0 14 -2 25 -5 25 -3 0 -5 14 -5 33 0 34 -13 57 -32
57 -5 0 -8 2 -8 5 0 3 -4 5 -10 5 -5 0 -10 -2 -10 -5 0 -3 -16 -5 -38 -5 -38
0 -52 6 -52 21 0 4 -4 10 -10 14 -5 4 -10 11 -10 15 0 4 -4 11 -10 15 -5 4
-10 11 -10 16 0 5 -2 9 -5 9 -3 0 -5 5 -5 10 0 6 -2 10 -5 10 -3 0 -5 5 -5 10
0 6 -2 10 -5 10 -3 0 -5 4 -5 8 0 9 -12 22 -20 22 -3 0 -12 7 -20 15 -14 15
-30 20 -30 10z"/>
<path d="M1556 2133 c-7 -9 -8 -23 -1 -23 3 0 5 -4 5 -8 0 -4 7 -14 15 -22 16
-15 13 -30 -6 -30 -4 0 -10 -4 -14 -10 -4 -5 -10 -10 -14 -10 -9 0 -51 -43
-51 -52 0 -5 4 -8 10 -8 6 0 10 -2 10 -5 0 -3 5 -5 10 -5 6 0 10 2 10 5 0 3 5
5 10 5 6 0 10 2 10 5 0 3 4 5 8 5 4 0 14 7 22 15 13 14 17 15 45 15 30 0 30 0
65 -35 19 -19 38 -35 42 -35 5 0 8 -2 8 -5 0 -3 5 -5 10 -5 7 0 10 -3 10 -10
0 -6 -3 -10 -8 -10 -12 0 -22 -13 -22 -30 0 -24 10 -30 47 -30 19 0 33 2 33 5
0 11 45 5 58 -7 12 -13 18 -58 7 -58 -8 0 -6 -25 2 -33 11 -11 27 -9 41 5 11
12 12 16 12 70 0 35 -2 58 -5 58 -3 0 -5 5 -5 10 0 6 -2 10 -5 10 -10 0 -5 16
10 30 15 14 20 30 10 30 -3 0 -5 4 -5 9 0 5 -4 12 -10 16 -5 4 -10 11 -10 16
0 5 -2 9 -5 9 -3 0 -5 4 -5 8 0 12 -13 22 -27 22 -7 0 -13 2 -13 5 0 3 -9 5
-20 5 -11 0 -20 2 -20 5 0 3 -17 5 -40 5 -23 0 -40 2 -40 5 0 3 -11 5 -25 5
-14 0 -25 2 -25 5 0 3 -11 5 -25 5 -14 0 -25 2 -25 5 0 3 -4 5 -10 5 -5 0 -10
2 -10 5 0 3 -4 5 -9 5 -5 0 -12 5 -16 10 -4 6 -11 10 -16 10 -5 0 -9 2 -9 5 0
7 -6 6 -14 -2z m234 -88 c0 -3 9 -5 20 -5 11 0 20 -2 20 -5 0 -3 6 -5 13 -5
16 0 37 -21 37 -37 0 -7 -2 -13 -5 -13 -3 0 -5 -6 -5 -13 0 -21 -30 -47 -55
-47 -23 0 -45 17 -45 35 0 11 -30 45 -40 45 -13 0 -41 35 -34 42 8 9 94 11 94
3z"/>
<path d="M930 2110 c0 -7 3 -10 10 -10 7 0 10 3 10 10 0 7 -3 10 -10 10 -7 0
-10 -3 -10 -10z"/>
<path d="M1070 1697 c0 -8 7 -19 20 -32 11 -11 20 -23 20 -27 0 -5 4 -8 10 -8
6 0 10 -2 10 -5 0 -3 5 -5 10 -5 6 0 10 -2 10 -5 0 -3 7 -5 15 -5 8 0 15 2 15
5 0 3 4 5 8 5 10 0 22 12 22 22 0 4 3 8 6 9 16 6 -11 19 -38 19 -15 0 -28 2
-28 5 0 3 -7 5 -15 5 -8 0 -15 2 -15 5 0 3 -4 5 -10 5 -5 0 -10 2 -10 5 0 3
-4 5 -10 5 -5 0 -10 2 -10 5 0 3 -2 5 -5 5 -3 0 -5 -6 -5 -13z"/>
</g>
</svg>
